<svg width="253" height="238" viewBox="0 0 253 238" fill="none" xmlns="http://www.w3.org/2000/svg">
<g opacity="0.1">
<path d="M480 17.7186L139.041 17.6979L67.2993 88.3493H12.0086M12.0086 88.3493C12.0086 91.3834 9.55541 93.8602 6.50432 93.8602C3.47385 93.8602 1 91.4041 1 88.3493C1 85.3152 3.45324 82.8384 6.50432 82.8384C9.5348 82.8384 12.0086 85.2946 12.0086 88.3493ZM480 37.141H149.699L79.4624 107.441H61.898M480 1.02064L126.28 1L72.6181 53.0339H42.3958M480 58.0495L157.801 58.0289L80.9467 137.246H57.7956M480 150.703H298.357L279.948 175.1H167.181M480 178.423H302.047L279.205 208.434H157.595L124.425 166.204H85.379M480 204.182H307.943L286.565 231.386H147.267L122.219 196.194H32.9952M480 83.9323L226.698 83.9117L199.279 111.363H140.36M480 108.577H242.407L207.072 143.954H119.395M480 131.756L272.67 131.735L254.797 154.171H234.181M480 231.407L331.589 231.386M42.645 53.034C42.645 56.0681 40.1917 58.545 37.1407 58.545C34.1102 58.545 31.6363 56.0888 31.6363 53.034C31.6363 49.9999 34.0896 47.5231 37.1407 47.5231C40.1711 47.5231 42.645 49.9793 42.645 53.034ZM62.6203 107.441C62.6203 110.475 60.1671 112.952 57.116 112.952C54.0856 112.952 51.6117 110.496 51.6117 107.441C51.6117 104.407 54.0649 101.93 57.116 101.93C60.1465 101.93 62.6203 104.387 62.6203 107.441ZM58.5179 137.246C58.5179 140.28 56.0646 142.757 53.0135 142.757C49.9831 142.757 47.5092 140.301 47.5092 137.246C47.5092 134.212 49.9624 131.735 53.0135 131.735C56.044 131.735 58.5179 134.191 58.5179 137.246ZM141.063 111.095C141.063 114.129 138.61 116.606 135.559 116.606C132.528 116.606 130.054 114.149 130.054 111.095C130.054 108.061 132.508 105.584 135.559 105.584C138.589 105.584 141.063 108.04 141.063 111.095ZM119.624 144.303C119.624 147.337 117.171 149.814 114.12 149.814C111.089 149.814 108.615 147.358 108.615 144.303C108.615 141.269 111.069 138.792 114.12 138.792C117.15 138.792 119.624 141.248 119.624 144.303ZM234.883 154.171C234.883 157.205 232.43 159.682 229.379 159.682C226.348 159.682 223.874 157.226 223.874 154.171C223.874 151.116 226.328 148.66 229.379 148.66C232.409 148.66 234.883 151.116 234.883 154.171ZM85.9571 166.204C85.9571 169.238 83.5038 171.715 80.4527 171.715C77.4223 171.715 74.9484 169.259 74.9484 166.204C74.9484 163.17 77.4017 160.693 80.4527 160.693C83.4832 160.693 85.9571 163.149 85.9571 166.204ZM167.841 175.1C167.841 178.134 165.388 180.611 162.337 180.611C159.306 180.611 156.832 178.155 156.832 175.1C156.832 172.066 159.285 169.589 162.337 169.589C165.367 169.589 167.841 172.045 167.841 175.1ZM33.1617 196.194C33.1617 199.228 30.7085 201.705 27.6574 201.705C24.6269 201.705 22.1531 199.249 22.1531 196.194C22.1531 193.16 24.6063 190.683 27.6574 190.683C30.6879 190.683 33.1617 193.139 33.1617 196.194ZM331.505 231.489C331.505 234.523 329.052 237 326.001 237C322.97 237 320.496 234.544 320.496 231.489C320.496 228.455 322.95 225.978 326.001 225.978C329.031 225.978 331.505 228.434 331.505 231.489Z" stroke="#4967BF" stroke-width="2" stroke-miterlimit="10"/>
</g>
</svg>
