<svg width="185" height="324" viewBox="0 0 185 324" fill="none" xmlns="http://www.w3.org/2000/svg">
<path opacity="0.5" d="M-299 305.634L44.8062 305.655L117.147 234.697H172.899M172.899 234.697C172.899 231.65 175.373 229.162 178.45 229.162C181.505 229.162 184 231.629 184 234.697C184 237.744 181.526 240.232 178.45 240.232C175.394 240.232 172.899 237.765 172.899 234.697ZM-299 286.128H34.059L104.882 215.522H122.593M-299 322.405L57.6737 322.425L111.784 270.166H142.258M-299 265.128L25.8895 265.149L103.386 185.588H126.73M-299 172.072H-115.84L-97.2771 147.57H16.4311M-299 144.232H-119.561L-96.5287 114.091H26.0974L59.5446 156.504H98.9163M-299 118.362H-125.507L-103.95 91.0399H36.512L61.7689 126.384H151.738M-299 239.133L-43.5827 239.154L-15.9352 211.583H43.4758M-299 214.382H-59.4228L-23.7929 178.851H64.6168M-299 191.102L-89.939 191.123L-71.9162 168.59H-51.1286M150.199 65.957H125.317L111.888 90.9363H73.4099L52.4561 63.8425H-299M150.199 65.957C150.199 62.9097 152.673 60.4221 155.75 60.4221C158.805 60.4221 161.3 62.8889 161.3 65.9569C161.3 69.0042 158.826 71.4918 155.75 71.4918C152.694 71.4918 150.199 69.025 150.199 65.957ZM-299 91.0192L-149.35 91.0399M-299 6.96016H38.9649M-299 36.8109H49.2963L73.4099 6.96014H155.75M140.637 270.166C140.637 267.118 143.111 264.631 146.187 264.631C149.243 264.631 151.738 267.098 151.738 270.166C151.738 273.213 149.264 275.7 146.187 275.7C143.132 275.7 140.637 273.234 140.637 270.166ZM121.18 215.522C121.18 212.475 123.654 209.987 126.73 209.987C129.786 209.987 132.28 212.454 132.28 215.522C132.28 218.569 129.807 221.057 126.73 221.057C123.674 221.057 121.18 218.59 121.18 215.522ZM125.317 185.588C125.317 182.541 127.79 180.053 130.867 180.053C133.923 180.053 136.417 182.52 136.417 185.588C136.417 188.636 133.943 191.123 130.867 191.123C127.811 191.123 125.317 188.656 125.317 185.588ZM41.397 211.853C41.397 208.806 43.8708 206.318 46.9473 206.318C50.0031 206.318 52.4976 208.785 52.4976 211.853C52.4976 214.9 50.0239 217.388 46.9473 217.388C43.8916 217.388 41.397 214.921 41.397 211.853ZM62.3302 179.867C62.3302 176.82 64.8039 174.332 67.8804 174.332C70.9362 174.332 73.4307 176.799 73.4307 179.867C73.4307 182.914 70.957 185.402 67.8804 185.402C64.8247 185.402 62.3302 182.935 62.3302 179.867ZM-52.5213 168.59C-52.5213 165.543 -50.0476 163.055 -46.971 163.055C-43.9153 163.055 -41.4208 165.522 -41.4208 168.59C-41.4208 171.658 -43.8945 174.125 -46.971 174.125C-50.0268 174.125 -52.5213 171.658 -52.5213 168.59ZM97.6483 156.504C97.6483 153.457 100.122 150.97 103.199 150.97C106.254 150.97 108.749 153.436 108.749 156.504C108.749 159.552 106.275 162.039 103.199 162.039C100.143 162.039 97.6483 159.572 97.6483 156.504ZM15.7659 147.57C15.7659 144.523 18.2396 142.035 21.3162 142.035C24.372 142.035 26.8665 144.502 26.8665 147.57C26.8665 150.617 24.3928 153.105 21.3162 153.105C18.2604 153.105 15.7659 150.638 15.7659 147.57ZM150.199 126.384C150.199 123.337 152.673 120.849 155.75 120.849C158.805 120.849 161.3 123.316 161.3 126.384C161.3 129.431 158.826 131.919 155.75 131.919C152.694 131.919 150.199 129.452 150.199 126.384ZM-147.895 90.9363C-147.895 87.889 -145.421 85.4015 -142.345 85.4015C-139.289 85.4015 -136.794 87.8683 -136.794 90.9363C-136.794 93.9836 -139.268 96.4711 -142.345 96.4711C-145.4 96.4711 -147.895 94.0043 -147.895 90.9363ZM153.567 6.96016C153.567 3.91289 156.041 1.42529 159.117 1.42529C162.173 1.42529 164.668 3.89216 164.668 6.96016C164.668 10.0074 162.194 12.495 159.117 12.495C156.061 12.495 153.567 10.0282 153.567 6.96016ZM38.8609 6.96016C38.8609 3.91289 41.3347 1.42529 44.4112 1.42529C47.467 1.42529 49.9615 3.89216 49.9615 6.96016C49.9615 10.0074 47.4878 12.495 44.4112 12.495C41.3555 12.495 38.8609 10.0282 38.8609 6.96016Z" stroke="url(#paint0_linear_23_3558)" stroke-width="2" stroke-miterlimit="10"/>
<defs>
<linearGradient id="paint0_linear_23_3558" x1="-57.5" y1="1.42529" x2="-57.5" y2="322.425" gradientUnits="userSpaceOnUse">
<stop stop-color="#4967BF"/>
<stop offset="0.575" stop-color="#242A47"/>
<stop offset="1" stop-color="#242A47"/>
</linearGradient>
</defs>
</svg>
