<svg width="40" height="41" viewBox="0 0 40 41" fill="none" xmlns="http://www.w3.org/2000/svg">
<rect y="0.23999" width="40" height="40" rx="20" fill="#4967BF"/>
<path fill-rule="evenodd" clip-rule="evenodd" d="M18.8081 13.548C19.0521 13.304 19.4479 13.304 19.6919 13.548L25.9419 19.798C26.0592 19.9153 26.125 20.0742 26.125 20.24C26.125 20.4058 26.0592 20.5647 25.9419 20.6819L19.6919 26.9319C19.4479 27.176 19.0521 27.176 18.8081 26.9319C18.564 26.6879 18.564 26.2921 18.8081 26.048L23.9911 20.865H10.5C10.1548 20.865 9.875 20.5852 9.875 20.24C9.875 19.8948 10.1548 19.615 10.5 19.615H23.9911L18.8081 14.4319C18.564 14.1879 18.564 13.7921 18.8081 13.548Z" fill="white"/>
</svg>
