<svg width="42" height="43" viewBox="0 0 42 43" fill="none" xmlns="http://www.w3.org/2000/svg">
<rect x="0.5" y="0.73999" width="41" height="41" rx="20.5" stroke="#4967BF"/>
<path fill-rule="evenodd" clip-rule="evenodd" d="M20.1919 14.548C20.436 14.7921 20.436 15.1879 20.1919 15.4319L15.0089 20.615H28.5C28.8452 20.615 29.125 20.8948 29.125 21.24C29.125 21.5852 28.8452 21.865 28.5 21.865H15.0089L20.1919 27.048C20.436 27.2921 20.436 27.6879 20.1919 27.9319C19.9479 28.176 19.5521 28.176 19.3081 27.9319L13.0581 21.6819C12.814 21.4379 12.814 21.0421 13.0581 20.798L19.3081 14.548C19.5521 14.304 19.9479 14.304 20.1919 14.548Z" fill="#4967BF"/>
</svg>
