<svg width="64" height="65" viewBox="0 0 64 65" fill="none" xmlns="http://www.w3.org/2000/svg">
<g clip-path="url(#clip0_2003_127)">
<path d="M58.3749 0.959961H52.9701L49.1332 4.70996H58.3749C59.4095 4.70996 60.2499 5.55029 60.2499 6.58496V9.44141C60.2499 13.2207 58.9501 16.9268 56.5878 19.8784C54.5717 22.3999 51.8876 24.271 48.8261 25.291L46.182 26.1719C45.2006 26.4995 44.6693 27.5615 44.9955 28.5449C45.2572 29.3306 45.9896 29.8267 46.7753 29.8267C46.9711 29.8267 47.1708 29.7954 47.3685 29.7314L50.0126 28.8486C53.7606 27.6001 57.0472 25.3076 59.5175 22.2222C62.4071 18.6079 63.9999 14.0684 63.9999 9.44141V6.58496C63.9999 3.4834 61.4764 0.959961 58.3749 0.959961Z" fill="#FC9C04"/>
<path d="M17.8179 26.1719L15.1738 25.293C12.1123 24.271 9.42822 22.3999 7.41211 19.8784C5.0498 16.9268 3.75 13.2207 3.75 9.44141V6.58496C3.75 5.55029 4.59033 4.70996 5.625 4.70996H15.3145L11.0298 0.959961H5.625C2.52344 0.959961 0 3.4834 0 6.58496V9.44141C0 14.0684 1.59277 18.6079 4.48242 22.2222C6.95264 25.3076 10.2393 27.6001 13.9873 28.8506L16.6313 29.7314C16.8291 29.7954 17.0288 29.8267 17.2246 29.8267C18.0103 29.8267 18.7427 29.3306 19.0044 28.5449C19.3306 27.5615 18.7993 26.4995 17.8179 26.1719Z" fill="#FFBF1E"/>
<path d="M37.75 37.5601V40.335C37.75 41.3848 38.5747 42.21 39.625 42.21C42.7378 42.21 45.25 44.7222 45.25 47.835V51.585C45.25 52.6348 44.4253 53.46 43.375 53.46H20.625C19.5747 53.46 18.75 52.6348 18.75 51.585V47.835C18.75 44.7222 21.2622 42.21 24.375 42.21C25.4253 42.21 26.25 41.3848 26.25 40.335V37.5601C19.2749 35.3472 14.1753 29.1973 13.3501 21.8848L11.0249 0.959961H52.9751L50.6499 21.8848C49.8247 29.1973 44.7251 35.3472 37.75 37.5601Z" fill="#FFD400"/>
<path d="M43.375 53.46H32V0.959961H52.9751L50.6499 21.8848C49.8247 29.1973 44.7251 35.3472 37.75 37.5601V40.335C37.75 41.3848 38.5747 42.21 39.625 42.21C42.7378 42.21 45.25 44.7222 45.25 47.835V51.585C45.25 52.6348 44.4253 53.46 43.375 53.46Z" fill="#FFBF1E"/>
<path d="M41.2999 15.0972C41.0748 14.3848 40.4752 13.8975 39.7628 13.7852L35.5626 13.1851L33.6876 9.47217C33.3502 8.83496 32.6749 8.53467 32.0001 8.53467C31.3253 8.53467 30.65 8.83496 30.3126 9.47217L28.4376 13.1851L24.2374 13.7847C23.525 13.8975 22.9254 14.3848 22.7003 15.0972C22.5128 15.7725 22.7003 16.522 23.2252 17.0098L26.2252 19.8975L25.5128 23.9473C25.4 24.6226 25.6627 25.335 26.2628 25.7852C26.8253 26.1973 27.6129 26.2725 28.2125 25.9351L32.0001 23.9849L35.7877 25.9351C36.4249 26.2725 37.1749 26.1973 37.7379 25.7852C38.3375 25.335 38.6002 24.6226 38.4874 23.9473L37.775 19.8975L40.775 17.0098C41.2999 16.5225 41.4879 15.7725 41.2999 15.0972Z" fill="#FFBF1E"/>
<path d="M49 51.585V62.9351H15V51.585C15 50.5347 15.8247 49.71 16.875 49.71H47.125C48.1753 49.71 49 50.5347 49 51.585Z" fill="#81A3D9"/>
<path d="M35.7876 25.9351L32 23.9849V8.53467C32.6748 8.53467 33.3501 8.83496 33.6875 9.47217L35.5625 13.1851L39.7627 13.7852C40.4751 13.8975 41.0747 14.3848 41.2998 15.0972C41.4873 15.7725 41.2998 16.5225 40.7749 17.0098L37.7749 19.8975L38.4873 23.9478C38.6001 24.6226 38.3374 25.335 37.7373 25.7852C37.1748 26.1973 36.4248 26.2725 35.7876 25.9351Z" fill="#FC9C04"/>
<path d="M49 51.585V62.9351H32V49.71H47.125C48.1753 49.71 49 50.5347 49 51.585Z" fill="#6387CE"/>
<path d="M52.75 63.085C52.75 64.1348 51.9253 64.96 50.875 64.96H13.125C12.0747 64.96 11.25 64.1348 11.25 63.085C11.25 62.0347 12.0747 61.21 13.125 61.21H50.875C51.9253 61.21 52.75 62.0347 52.75 63.085Z" fill="#667A91"/>
<path d="M52.75 63.085C52.75 64.1348 51.9253 64.96 50.875 64.96H32V61.21H50.875C51.9253 61.21 52.75 62.0347 52.75 63.085Z" fill="#516278"/>
</g>
<defs>
<clipPath id="clip0_2003_127">
<rect width="64" height="64" fill="white" transform="translate(0 0.959961)"/>
</clipPath>
</defs>
</svg>
