<svg width="24" height="25" viewBox="0 0 24 25" fill="none" xmlns="http://www.w3.org/2000/svg">
<path fill-rule="evenodd" clip-rule="evenodd" d="M6.75 2.97021C7.16421 2.97021 7.5 3.306 7.5 3.72021V5.22021H16.5V3.72021C16.5 3.306 16.8358 2.97021 17.25 2.97021C17.6642 2.97021 18 3.306 18 3.72021V5.22021H18.75C20.4069 5.22021 21.75 6.56336 21.75 8.22021V19.4702C21.75 21.1271 20.4069 22.4702 18.75 22.4702H5.25C3.59315 22.4702 2.25 21.1271 2.25 19.4702V8.22021C2.25 6.56336 3.59315 5.22021 5.25 5.22021H6V3.72021C6 3.306 6.33579 2.97021 6.75 2.97021ZM20.25 11.9702C20.25 11.1418 19.5784 10.4702 18.75 10.4702H5.25C4.42157 10.4702 3.75 11.1418 3.75 11.9702V19.4702C3.75 20.2986 4.42157 20.9702 5.25 20.9702H18.75C19.5784 20.9702 20.25 20.2986 20.25 19.4702V11.9702Z" fill="#EF7C00"/>
</svg>
