<svg width="42" height="151" viewBox="0 0 42 151" fill="none" xmlns="http://www.w3.org/2000/svg">
<path d="M39 2.16602C39 2.99348 39.6707 3.66602 40.5 3.66602C41.3293 3.66602 42 2.9953 42 2.16602C42 1.33673 41.3293 0.666016 40.5 0.666016C39.6707 0.666016 39 1.33673 39 2.16602Z" fill="#4967BF"/>
<path d="M39 15.166C39 15.9935 39.6707 16.666 40.5 16.666C41.3293 16.666 42 15.9953 42 15.166C42 14.3367 41.3293 13.666 40.5 13.666C39.6707 13.666 39 14.3367 39 15.166Z" fill="#4967BF"/>
<path d="M39 28.166C39 28.9935 39.6707 29.666 40.5 29.666C41.3293 29.666 42 28.9953 42 28.166C42 27.3367 41.3293 26.666 40.5 26.666C39.6707 26.666 39 27.3367 39 28.166Z" fill="#4967BF"/>
<path d="M39 41.166C39 41.9935 39.6707 42.666 40.5 42.666C41.3293 42.666 42 41.9953 42 41.166C42 40.3367 41.3293 39.666 40.5 39.666C39.6707 39.666 39 40.3367 39 41.166Z" fill="#4967BF"/>
<path d="M39 54.166C39 54.9935 39.6707 55.666 40.5 55.666C41.3293 55.666 42 54.9953 42 54.166C42 53.3367 41.3293 52.666 40.5 52.666C39.6707 52.666 39 53.3367 39 54.166Z" fill="#4967BF"/>
<path d="M39 67.166C39 67.9935 39.6707 68.666 40.5 68.666C41.3293 68.666 42 67.9953 42 67.166C42 66.3367 41.3293 65.666 40.5 65.666C39.6707 65.666 39 66.3367 39 67.166Z" fill="#4967BF"/>
<path d="M39 80.166C39 80.9935 39.6707 81.666 40.5 81.666C41.3293 81.666 42 80.9953 42 80.166C42 79.3367 41.3293 78.666 40.5 78.666C39.6707 78.666 39 79.3367 39 80.166Z" fill="#4967BF"/>
<path d="M39 93.166C39 93.9935 39.6707 94.666 40.5 94.666C41.3293 94.666 42 93.9953 42 93.166C42 92.3367 41.3293 91.666 40.5 91.666C39.6707 91.666 39 92.3367 39 93.166Z" fill="#4967BF"/>
<path d="M39 106.166C39 106.993 39.6707 107.666 40.5 107.666C41.3293 107.666 42 106.995 42 106.166C42 105.337 41.3293 104.666 40.5 104.666C39.6707 104.666 39 105.337 39 106.166Z" fill="#4967BF"/>
<path d="M39 119.166C39 119.993 39.6707 120.666 40.5 120.666C41.3293 120.666 42 119.995 42 119.166C42 118.337 41.3293 117.666 40.5 117.666C39.6707 117.666 39 118.337 39 119.166Z" fill="#4967BF"/>
<path d="M39 132.166C39 132.993 39.6707 133.666 40.5 133.666C41.3293 133.666 42 132.995 42 132.166C42 131.337 41.3293 130.666 40.5 130.666C39.6707 130.666 39 131.337 39 132.166Z" fill="#4967BF"/>
<path d="M39 145.166C39 145.993 39.6707 146.666 40.5 146.666C41.3293 146.666 42 145.995 42 145.166C42 144.337 41.3293 143.666 40.5 143.666C39.6707 143.666 39 144.337 39 145.166Z" fill="#4967BF"/>
<path d="M26 2.16602C26 2.99348 26.6707 3.66602 27.5 3.66602C28.3293 3.66602 29 2.9953 29 2.16602C29 1.33673 28.3293 0.666016 27.5 0.666016C26.6707 0.666016 26 1.33673 26 2.16602Z" fill="#4967BF"/>
<path d="M26 15.166C26 15.9935 26.6707 16.666 27.5 16.666C28.3293 16.666 29 15.9953 29 15.166C29 14.3367 28.3293 13.666 27.5 13.666C26.6707 13.666 26 14.3367 26 15.166Z" fill="#4967BF"/>
<path d="M26 28.166C26 28.9935 26.6707 29.666 27.5 29.666C28.3293 29.666 29 28.9953 29 28.166C29 27.3367 28.3293 26.666 27.5 26.666C26.6707 26.666 26 27.3367 26 28.166Z" fill="#4967BF"/>
<path d="M26 41.166C26 41.9935 26.6707 42.666 27.5 42.666C28.3293 42.666 29 41.9953 29 41.166C29 40.3367 28.3293 39.666 27.5 39.666C26.6707 39.666 26 40.3367 26 41.166Z" fill="#4967BF"/>
<path d="M26 54.166C26 54.9935 26.6707 55.666 27.5 55.666C28.3293 55.666 29 54.9953 29 54.166C29 53.3367 28.3293 52.666 27.5 52.666C26.6707 52.666 26 53.3367 26 54.166Z" fill="#4967BF"/>
<path d="M26 67.166C26 67.9935 26.6707 68.666 27.5 68.666C28.3293 68.666 29 67.9953 29 67.166C29 66.3367 28.3293 65.666 27.5 65.666C26.6707 65.666 26 66.3367 26 67.166Z" fill="#4967BF"/>
<path d="M26 80.166C26 80.9935 26.6707 81.666 27.5 81.666C28.3293 81.666 29 80.9953 29 80.166C29 79.3367 28.3293 78.666 27.5 78.666C26.6707 78.666 26 79.3367 26 80.166Z" fill="#4967BF"/>
<path d="M26 93.166C26 93.9935 26.6707 94.666 27.5 94.666C28.3293 94.666 29 93.9953 29 93.166C29 92.3367 28.3293 91.666 27.5 91.666C26.6707 91.666 26 92.3367 26 93.166Z" fill="#4967BF"/>
<path d="M26 106.166C26 106.993 26.6707 107.666 27.5 107.666C28.3293 107.666 29 106.995 29 106.166C29 105.337 28.3293 104.666 27.5 104.666C26.6707 104.666 26 105.337 26 106.166Z" fill="#4967BF"/>
<path d="M26 119.166C26 119.993 26.6707 120.666 27.5 120.666C28.3293 120.666 29 119.995 29 119.166C29 118.337 28.3293 117.666 27.5 117.666C26.6707 117.666 26 118.337 26 119.166Z" fill="#4967BF"/>
<path d="M26 132.166C26 132.993 26.6707 133.666 27.5 133.666C28.3293 133.666 29 132.995 29 132.166C29 131.337 28.3293 130.666 27.5 130.666C26.6707 130.666 26 131.337 26 132.166Z" fill="#4967BF"/>
<path d="M26 145.166C26 145.993 26.6707 146.666 27.5 146.666C28.3293 146.666 29 145.995 29 145.166C29 144.337 28.3293 143.666 27.5 143.666C26.6707 143.666 26 144.337 26 145.166Z" fill="#4967BF"/>
<path d="M13 2.16602C13 2.99348 13.6707 3.66602 14.5 3.66602C15.3293 3.66602 16 2.9953 16 2.16602C16 1.33673 15.3293 0.666016 14.5 0.666016C13.6707 0.666016 13 1.33673 13 2.16602Z" fill="#4967BF"/>
<path d="M13 15.166C13 15.9935 13.6707 16.666 14.5 16.666C15.3293 16.666 16 15.9953 16 15.166C16 14.3367 15.3293 13.666 14.5 13.666C13.6707 13.666 13 14.3367 13 15.166Z" fill="#4967BF"/>
<path d="M13 28.166C13 28.9935 13.6707 29.666 14.5 29.666C15.3293 29.666 16 28.9953 16 28.166C16 27.3367 15.3293 26.666 14.5 26.666C13.6707 26.666 13 27.3367 13 28.166Z" fill="#4967BF"/>
<path d="M13 41.166C13 41.9935 13.6707 42.666 14.5 42.666C15.3293 42.666 16 41.9953 16 41.166C16 40.3367 15.3293 39.666 14.5 39.666C13.6707 39.666 13 40.3367 13 41.166Z" fill="#4967BF"/>
<path d="M13 54.166C13 54.9935 13.6707 55.666 14.5 55.666C15.3293 55.666 16 54.9953 16 54.166C16 53.3367 15.3293 52.666 14.5 52.666C13.6707 52.666 13 53.3367 13 54.166Z" fill="#4967BF"/>
<path d="M13 67.166C13 67.9935 13.6707 68.666 14.5 68.666C15.3293 68.666 16 67.9953 16 67.166C16 66.3367 15.3293 65.666 14.5 65.666C13.6707 65.666 13 66.3367 13 67.166Z" fill="#4967BF"/>
<path d="M13 80.166C13 80.9935 13.6707 81.666 14.5 81.666C15.3293 81.666 16 80.9953 16 80.166C16 79.3367 15.3293 78.666 14.5 78.666C13.6707 78.666 13 79.3367 13 80.166Z" fill="#4967BF"/>
<path d="M13 93.166C13 93.9935 13.6707 94.666 14.5 94.666C15.3293 94.666 16 93.9953 16 93.166C16 92.3367 15.3293 91.666 14.5 91.666C13.6707 91.666 13 92.3367 13 93.166Z" fill="#4967BF"/>
<path d="M13 106.166C13 106.993 13.6707 107.666 14.5 107.666C15.3293 107.666 16 106.995 16 106.166C16 105.337 15.3293 104.666 14.5 104.666C13.6707 104.666 13 105.337 13 106.166Z" fill="#4967BF"/>
<path d="M13 119.166C13 119.993 13.6707 120.666 14.5 120.666C15.3293 120.666 16 119.995 16 119.166C16 118.337 15.3293 117.666 14.5 117.666C13.6707 117.666 13 118.337 13 119.166Z" fill="#4967BF"/>
<path d="M13 132.166C13 132.993 13.6707 133.666 14.5 133.666C15.3293 133.666 16 132.995 16 132.166C16 131.337 15.3293 130.666 14.5 130.666C13.6707 130.666 13 131.337 13 132.166Z" fill="#4967BF"/>
<path d="M13 145.166C13 145.993 13.6707 146.666 14.5 146.666C15.3293 146.666 16 145.995 16 145.166C16 144.337 15.3293 143.666 14.5 143.666C13.6707 143.666 13 144.337 13 145.166Z" fill="#4967BF"/>
<path d="M-7.4046e-08 2.16602C-1.14893e-07 2.99348 0.670718 3.66602 1.5 3.66602C2.32928 3.66602 3 2.9953 3 2.16602C3 1.33673 2.32928 0.666016 1.5 0.666016C0.670718 0.666016 -3.31092e-08 1.33673 -7.4046e-08 2.16602Z" fill="#4967BF"/>
<path d="M-7.4046e-08 15.166C-1.14893e-07 15.9935 0.670719 16.666 1.5 16.666C2.32929 16.666 3 15.9953 3 15.166C3 14.3367 2.32929 13.666 1.5 13.666C0.670719 13.666 -3.31092e-08 14.3367 -7.4046e-08 15.166Z" fill="#4967BF"/>
<path d="M-7.4046e-08 28.166C-1.14893e-07 28.9935 0.670719 29.666 1.5 29.666C2.32929 29.666 3 28.9953 3 28.166C3 27.3367 2.32929 26.666 1.5 26.666C0.670719 26.666 -3.31092e-08 27.3367 -7.4046e-08 28.166Z" fill="#4967BF"/>
<path d="M-7.4046e-08 41.166C-1.14893e-07 41.9935 0.670719 42.666 1.5 42.666C2.32929 42.666 3 41.9953 3 41.166C3 40.3367 2.32929 39.666 1.5 39.666C0.670719 39.666 -3.31092e-08 40.3367 -7.4046e-08 41.166Z" fill="#4967BF"/>
<path d="M-7.4046e-08 54.166C-1.14893e-07 54.9935 0.670719 55.666 1.5 55.666C2.32929 55.666 3 54.9953 3 54.166C3 53.3367 2.32929 52.666 1.5 52.666C0.670719 52.666 -3.31092e-08 53.3367 -7.4046e-08 54.166Z" fill="#4967BF"/>
<path d="M-7.40466e-08 67.166C-1.14893e-07 67.9935 0.670719 68.666 1.5 68.666C2.32929 68.666 3 67.9953 3 67.166C3 66.3367 2.32929 65.666 1.5 65.666C0.670719 65.666 -3.311e-08 66.3367 -7.40466e-08 67.166Z" fill="#4967BF"/>
<path d="M-7.4046e-08 80.166C-1.14893e-07 80.9935 0.670719 81.666 1.5 81.666C2.32929 81.666 3 80.9953 3 80.166C3 79.3367 2.32929 78.666 1.5 78.666C0.670719 78.666 -3.31092e-08 79.3367 -7.4046e-08 80.166Z" fill="#4967BF"/>
<path d="M-7.4046e-08 93.166C-1.14893e-07 93.9935 0.670719 94.666 1.5 94.666C2.32929 94.666 3 93.9953 3 93.166C3 92.3367 2.32929 91.666 1.5 91.666C0.670719 91.666 -3.31092e-08 92.3367 -7.4046e-08 93.166Z" fill="#4967BF"/>
<path d="M-7.4046e-08 106.166C-1.14893e-07 106.993 0.670719 107.666 1.5 107.666C2.32929 107.666 3 106.995 3 106.166C3 105.337 2.32929 104.666 1.5 104.666C0.670719 104.666 -3.31092e-08 105.337 -7.4046e-08 106.166Z" fill="#4967BF"/>
<path d="M-7.40455e-08 119.166C-1.14892e-07 119.993 0.670719 120.666 1.5 120.666C2.32929 120.666 3 119.995 3 119.166C3 118.337 2.32929 117.666 1.5 117.666C0.670719 117.666 -3.31089e-08 118.337 -7.40455e-08 119.166Z" fill="#4967BF"/>
<path d="M-7.4046e-08 132.166C-1.14893e-07 132.993 0.670719 133.666 1.5 133.666C2.32929 133.666 3 132.995 3 132.166C3 131.337 2.32929 130.666 1.5 130.666C0.670719 130.666 -3.31092e-08 131.337 -7.4046e-08 132.166Z" fill="#4967BF"/>
<path d="M-7.4046e-08 145.166C-1.14893e-07 145.993 0.670716 146.666 1.5 146.666C2.32928 146.666 3 145.995 3 145.166C3 144.337 2.32928 143.666 1.5 143.666C0.670716 143.666 -3.31092e-08 144.337 -7.4046e-08 145.166Z" fill="#4967BF"/>
</svg>
