<svg width="58" height="58" viewBox="0 0 58 58" fill="none" xmlns="http://www.w3.org/2000/svg">
<path d="M54.8364 1.58156C54.8364 2.45416 55.5437 3.16339 56.4182 3.16339C57.2927 3.16339 58 2.45608 58 1.58156C58 0.707053 57.2927 -0.000241553 56.4182 -0.000241594C55.5437 -0.000241634 54.8364 0.707052 54.8364 1.58156Z" fill="#EF7C00"/>
<path d="M54.8364 15.2907C54.8364 16.1633 55.5437 16.8725 56.4182 16.8725C57.2927 16.8725 58 16.1652 58 15.2907C58 14.4161 57.2927 13.7088 56.4182 13.7088C55.5437 13.7088 54.8364 14.4161 54.8364 15.2907Z" fill="#EF7C00"/>
<path d="M54.8364 28.9998C54.8364 29.8724 55.5437 30.5816 56.4182 30.5816C57.2927 30.5816 58 29.8743 58 28.9998C58 28.1253 57.2927 27.4179 56.4182 27.4179C55.5437 27.4179 54.8364 28.1253 54.8364 28.9998Z" fill="#EF7C00"/>
<path d="M54.8364 42.7089C54.8364 43.5814 55.5437 44.2907 56.4182 44.2907C57.2927 44.2907 58 43.5834 58 42.7089C58 41.8343 57.2927 41.127 56.4182 41.127C55.5437 41.127 54.8364 41.8343 54.8364 42.7089Z" fill="#EF7C00"/>
<path d="M54.8364 56.4179C54.8364 57.2905 55.5437 57.9998 56.4182 57.9998C57.2927 57.9998 58 57.2925 58 56.4179C58 55.5434 57.2927 54.8361 56.4182 54.8361C55.5437 54.8361 54.8364 55.5434 54.8364 56.4179Z" fill="#EF7C00"/>
<path d="M41.1273 1.58158C41.1273 2.45417 41.8346 3.16339 42.7091 3.16339C43.5836 3.16339 44.2909 2.45609 44.2909 1.58158C44.2909 0.707057 43.5836 -0.00024219 42.7091 -0.00024223C41.8346 -0.000242271 41.1273 0.707057 41.1273 1.58158Z" fill="#EF7C00"/>
<path d="M41.1273 15.2907C41.1273 16.1633 41.8346 16.8725 42.7091 16.8725C43.5836 16.8725 44.2909 16.1652 44.2909 15.2907C44.2909 14.4161 43.5836 13.7088 42.7091 13.7088C41.8346 13.7088 41.1273 14.4161 41.1273 15.2907Z" fill="#EF7C00"/>
<path d="M41.1273 28.9998C41.1273 29.8724 41.8346 30.5816 42.7091 30.5816C43.5836 30.5816 44.2909 29.8743 44.2909 28.9998C44.2909 28.1253 43.5836 27.4179 42.7091 27.4179C41.8346 27.4179 41.1273 28.1253 41.1273 28.9998Z" fill="#EF7C00"/>
<path d="M41.1273 42.7088C41.1273 43.5814 41.8346 44.2907 42.7091 44.2907C43.5836 44.2907 44.2909 43.5833 44.2909 42.7088C44.2909 41.8343 43.5836 41.127 42.7091 41.127C41.8346 41.127 41.1273 41.8343 41.1273 42.7088Z" fill="#EF7C00"/>
<path d="M41.1273 56.4179C41.1273 57.2905 41.8346 57.9998 42.7091 57.9998C43.5836 57.9998 44.2909 57.2925 44.2909 56.4179C44.2909 55.5434 43.5836 54.8361 42.7091 54.8361C41.8346 54.8361 41.1273 55.5434 41.1273 56.4179Z" fill="#EF7C00"/>
<path d="M27.4182 1.58159C27.4182 2.45418 28.1255 3.16339 29 3.16339C29.8745 3.16339 30.5818 2.4561 30.5818 1.58159C30.5818 0.707075 29.8745 -0.000242827 29 -0.000242867C28.1255 -0.000242908 27.4182 0.707074 27.4182 1.58159Z" fill="#EF7C00"/>
<path d="M27.4182 15.2907C27.4182 16.1633 28.1255 16.8725 29 16.8725C29.8745 16.8725 30.5818 16.1652 30.5818 15.2907C30.5818 14.4161 29.8745 13.7088 29 13.7088C28.1255 13.7088 27.4182 14.4161 27.4182 15.2907Z" fill="#EF7C00"/>
<path d="M27.4182 28.9998C27.4182 29.8724 28.1255 30.5816 29 30.5816C29.8745 30.5816 30.5818 29.8743 30.5818 28.9998C30.5818 28.1252 29.8745 27.4179 29 27.4179C28.1255 27.4179 27.4182 28.1252 27.4182 28.9998Z" fill="#EF7C00"/>
<path d="M27.4182 42.7089C27.4182 43.5814 28.1255 44.2907 29 44.2907C29.8745 44.2907 30.5818 43.5834 30.5818 42.7089C30.5818 41.8343 29.8745 41.127 29 41.127C28.1255 41.127 27.4182 41.8343 27.4182 42.7089Z" fill="#EF7C00"/>
<path d="M27.4182 56.4179C27.4182 57.2905 28.1255 57.9998 29 57.9998C29.8745 57.9998 30.5818 57.2924 30.5818 56.4179C30.5818 55.5434 29.8745 54.8361 29 54.8361C28.1255 54.8361 27.4182 55.5434 27.4182 56.4179Z" fill="#EF7C00"/>
<path d="M13.7091 1.58157C13.7091 2.45417 14.4164 3.16339 15.2909 3.16339C16.1654 3.16339 16.8727 2.45609 16.8727 1.58157C16.8727 0.707056 16.1654 -0.000243463 15.2909 -0.000243504C14.4164 -0.000243544 13.7091 0.707056 13.7091 1.58157Z" fill="#EF7C00"/>
<path d="M13.7091 15.2907C13.7091 16.1633 14.4164 16.8725 15.2909 16.8725C16.1654 16.8725 16.8727 16.1652 16.8727 15.2907C16.8727 14.4162 16.1654 13.7088 15.2909 13.7088C14.4164 13.7088 13.7091 14.4162 13.7091 15.2907Z" fill="#EF7C00"/>
<path d="M13.7091 28.9998C13.7091 29.8724 14.4164 30.5816 15.2909 30.5816C16.1654 30.5816 16.8727 29.8743 16.8727 28.9998C16.8727 28.1252 16.1654 27.4179 15.2909 27.4179C14.4164 27.4179 13.7091 28.1252 13.7091 28.9998Z" fill="#EF7C00"/>
<path d="M13.7091 42.7088C13.7091 43.5814 14.4164 44.2907 15.2909 44.2907C16.1654 44.2907 16.8727 43.5834 16.8727 42.7088C16.8727 41.8343 16.1654 41.127 15.2909 41.127C14.4164 41.127 13.7091 41.8343 13.7091 42.7088Z" fill="#EF7C00"/>
<path d="M13.7091 56.4179C13.7091 57.2905 14.4164 57.9997 15.2909 57.9997C16.1654 57.9997 16.8727 57.2925 16.8727 56.4179C16.8727 55.5434 16.1654 54.8361 15.2909 54.8361C14.4164 54.8361 13.7091 55.5434 13.7091 56.4179Z" fill="#EF7C00"/>
<path d="M1.70968e-06 1.58156C1.67378e-06 2.45415 0.707303 3.16339 1.58182 3.16339C2.45634 3.16339 3.16364 2.45607 3.16364 1.58156C3.16364 0.70705 2.45634 -0.0002441 1.58182 -0.000244141C0.707303 -0.000244181 1.74565e-06 0.70705 1.70968e-06 1.58156Z" fill="#EF7C00"/>
<path d="M1.70968e-06 15.2907C1.67378e-06 16.1633 0.707303 16.8725 1.58182 16.8725C2.45634 16.8725 3.16364 16.1652 3.16364 15.2907C3.16364 14.4161 2.45634 13.7088 1.58182 13.7088C0.707303 13.7088 1.74565e-06 14.4161 1.70968e-06 15.2907Z" fill="#EF7C00"/>
<path d="M8.54839e-07 28.9998C8.18944e-07 29.8724 0.707303 30.5816 1.58182 30.5816C2.45634 30.5816 3.16364 29.8743 3.16364 28.9998C3.16364 28.1253 2.45634 27.4179 1.58182 27.4179C0.707303 27.4179 8.90814e-07 28.1253 8.54839e-07 28.9998Z" fill="#EF7C00"/>
<path d="M8.54839e-07 42.7088C8.18943e-07 43.5814 0.707304 44.2907 1.58182 44.2907C2.45634 44.2907 3.16364 43.5834 3.16364 42.7088C3.16364 41.8343 2.45634 41.127 1.58182 41.127C0.707304 41.127 8.90814e-07 41.8343 8.54839e-07 42.7088Z" fill="#EF7C00"/>
<path d="M0 56.4179C-3.58957e-08 57.2905 0.707304 57.9997 1.58182 57.9997C2.45634 57.9997 3.16364 57.2925 3.16364 56.4179C3.16364 55.5434 2.45634 54.8361 1.58182 54.8361C0.707304 54.8361 3.59748e-08 55.5434 0 56.4179Z" fill="#EF7C00"/>
</svg>
