<svg width="48" height="48" viewBox="0 0 48 48" fill="none" xmlns="http://www.w3.org/2000/svg">
<g clip-path="url(#clip0_2004_2286)">
<path d="M5.30906 47.2724H1.9636C1.52724 47.2724 1.23633 46.9815 1.23633 46.5451V31.8542C1.23633 31.4179 1.52724 31.127 1.9636 31.127H5.30906C7.99997 31.127 10.2545 33.3815 10.2545 36.0724V42.327C10.2545 45.0179 7.99997 47.2724 5.30906 47.2724ZM2.69087 45.8179H5.30906C7.19996 45.8179 8.79997 44.2179 8.79997 42.327V36.0724C8.79997 34.1815 7.19996 32.5815 5.30906 32.5815H2.69087V45.8179Z" fill="white"/>
<path d="M14.691 37.7453H9.52732C9.09096 37.7453 8.80005 37.4544 8.80005 37.018C8.80005 36.5817 9.09096 36.2908 9.52732 36.2908H14.691C15.1273 36.2908 15.4182 36.5817 15.4182 37.018C15.4182 37.4544 15.1273 37.7453 14.691 37.7453Z" fill="white"/>
<path d="M15.5637 42.1816H9.52732C9.09096 42.1816 8.80005 41.8907 8.80005 41.4543C8.80005 41.018 9.09096 40.7271 9.52732 40.7271H15.5637C16 40.7271 16.291 41.018 16.291 41.4543C16.291 41.8907 16 42.1816 15.5637 42.1816Z" fill="white"/>
<path d="M21.4546 35.9997C21.0183 35.9997 20.7274 35.7088 20.7274 35.2725V30.7634H17.6728V34.6179C17.6728 35.0543 17.3819 35.3452 16.9455 35.3452C16.5092 35.3452 16.2183 35.0543 16.2183 34.6179V30.0361C16.2183 29.5997 16.5092 29.3088 16.9455 29.3088H21.4546C21.891 29.3088 22.1819 29.5997 22.1819 30.0361V35.2725C22.1819 35.7088 21.891 35.9997 21.4546 35.9997Z" fill="white"/>
<path d="M20.6545 30.7634C20.2182 30.7634 19.9272 30.4725 19.9272 30.0361V25.3816C19.9272 24.9452 20.2182 24.6543 20.6545 24.6543C21.0909 24.6543 21.3818 24.9452 21.3818 25.3816V30.0361C21.3818 30.4725 21.0909 30.7634 20.6545 30.7634Z" fill="white"/>
<path d="M17.8908 30.7634C17.4545 30.7634 17.1636 30.4725 17.1636 30.0362V24.1452C17.1636 23.7089 17.4545 23.418 17.8908 23.418C18.3272 23.418 18.6181 23.7089 18.6181 24.1452V30.0362C18.6181 30.4725 18.3272 30.7634 17.8908 30.7634Z" fill="white"/>
<path d="M31.4181 32.7998C31.2727 32.7998 31.1272 32.7998 31.0545 32.727L3.99996 16.5816C3.85451 16.5088 3.70905 16.2907 3.63633 16.1452C3.5636 15.9998 3.63633 15.7816 3.70905 15.5634L12.3636 1.09066C12.5818 0.727029 13.0181 0.654301 13.3818 0.872483L46.4 20.5816C46.6181 20.727 46.7636 20.9452 46.7636 21.1634C46.7636 21.3816 46.6909 21.6725 46.4727 21.8179L31.8545 32.727C31.7091 32.727 31.5636 32.7998 31.4181 32.7998ZM5.38178 15.7088L31.4181 31.1998L44.8 21.2361L13.2363 2.47248L5.38178 15.7088Z" fill="white"/>
<path d="M39.8545 34.109C39.7091 34.109 39.6364 34.109 39.4909 34.0362L33.8182 30.6908C33.4545 30.4726 33.3818 30.0362 33.5273 29.6726C33.7454 29.309 34.1818 29.2362 34.5454 29.3817L39.5636 32.3635L43.7091 25.4544L42.0364 24.4362C41.6727 24.2181 41.6 23.7817 41.8182 23.4181C42.0364 23.0544 42.4727 22.9817 42.8364 23.1999L45.0909 24.5817C45.4545 24.7999 45.5273 25.2362 45.3091 25.5999L40.4364 33.7453C40.3636 33.9635 40.0727 34.109 39.8545 34.109Z" fill="white"/>
<path d="M8.6545 19.2725C8.50904 19.2725 8.36359 19.2725 8.29086 19.1271C7.92722 18.9089 7.8545 18.4725 8.07268 18.1089L17.0181 3.85434C17.2363 3.4907 17.6727 3.41797 18.0363 3.63615C18.4 3.85434 18.4727 4.2907 18.2545 4.65434L9.23631 18.9089C9.16359 19.1271 8.87268 19.2725 8.6545 19.2725Z" fill="white"/>
<path d="M38.4001 27.6362C38.2546 27.6362 38.1092 27.6362 38.0364 27.5634L12.7274 11.9998L8.65463 9.52706C8.29099 9.30888 8.21827 8.87251 8.43645 8.50888C8.65463 8.14524 9.09099 8.07251 9.45463 8.2907L13.5274 10.7634L38.8364 26.3271C39.2001 26.5452 39.2728 26.9816 39.0546 27.3452C38.9092 27.4907 38.6183 27.6362 38.4001 27.6362Z" fill="white"/>
<path d="M21.3817 10.2543C21.2363 10.2543 21.0908 10.2543 21.0181 10.1816L18.8363 8.87252C18.4726 8.65434 18.3999 8.21797 18.6181 7.85434C18.8363 7.4907 19.2726 7.41797 19.6363 7.63615L21.8181 8.94525C22.1817 9.16343 22.2545 9.59979 22.0363 9.96343C21.8908 10.1089 21.5999 10.2543 21.3817 10.2543Z" fill="white"/>
<path d="M26.7636 13.4543C26.6181 13.4543 26.4727 13.4543 26.3999 13.3816L24.2181 12.0725C23.8545 11.8543 23.7817 11.4179 23.9999 11.0543C24.2181 10.6907 24.6545 10.6179 25.0181 10.8361L27.1999 12.1452C27.5636 12.3634 27.6363 12.7997 27.4181 13.1634C27.2727 13.3088 26.9817 13.4543 26.7636 13.4543Z" fill="white"/>
<path d="M32.0726 16.6542C31.9272 16.6542 31.7817 16.6542 31.709 16.5815L29.5272 15.2724C29.1636 15.0542 29.0908 14.6179 29.309 14.2542C29.5272 13.8906 29.9636 13.8179 30.3272 14.0361L32.509 15.3451C32.8726 15.5633 32.9454 15.9997 32.7272 16.3633C32.5817 16.5088 32.2908 16.6542 32.0726 16.6542Z" fill="white"/>
<path d="M18.6908 43.5635C15.9272 43.5635 13.6726 41.3089 13.6726 38.5453C13.6726 35.7816 15.9272 33.5271 18.6908 33.5271C21.4544 33.5271 23.709 35.7816 23.709 38.5453C23.709 41.3089 21.4544 43.5635 18.6908 43.5635ZM18.6908 34.9816C16.7272 34.9816 15.1272 36.5816 15.1272 38.5453C15.1272 40.5089 16.7272 42.1089 18.6908 42.1089C20.6544 42.1089 22.2544 40.5089 22.2544 38.5453C22.2544 36.5816 20.6544 34.9816 18.6908 34.9816Z" fill="white"/>
<path d="M5.30906 47.2724C4.8727 47.2724 4.58179 46.9815 4.58179 46.5451V31.8542C4.58179 31.4179 4.8727 31.127 5.30906 31.127C5.74542 31.127 6.03633 31.4179 6.03633 31.8542V46.5451C6.03633 46.9815 5.74542 47.2724 5.30906 47.2724Z" fill="white"/>
<path d="M1.9636 32.5815C1.52724 32.5815 1.23633 32.2906 1.23633 31.8542V5.81785C1.23633 5.38149 1.52724 5.09058 1.9636 5.09058C2.39996 5.09058 2.69087 5.38149 2.69087 5.81785V31.8542C2.69087 32.2906 2.39996 32.5815 1.9636 32.5815Z" fill="white"/>
</g>
<defs>
<clipPath id="clip0_2004_2286">
<rect width="48" height="48" fill="white" transform="translate(0 -0.000244141)"/>
</clipPath>
</defs>
</svg>
