<svg width="24" height="25" viewBox="0 0 24 25" fill="none" xmlns="http://www.w3.org/2000/svg">
<path fill-rule="evenodd" clip-rule="evenodd" d="M11.5397 23.0713C11.57 23.0888 11.5937 23.1023 11.6105 23.1117L11.6384 23.1273C11.8613 23.2497 12.1378 23.2487 12.3608 23.1277L12.3895 23.1117C12.4063 23.1023 12.43 23.0888 12.4603 23.0713C12.5207 23.0363 12.607 22.9852 12.7155 22.9184C12.9325 22.7848 13.2388 22.5878 13.6046 22.3293C14.3351 21.8133 15.3097 21.0477 16.2865 20.0476C18.2307 18.057 20.25 15.0664 20.25 11.2202C20.25 6.66387 16.5563 2.97021 12 2.97021C7.44365 2.97021 3.75 6.66387 3.75 11.2202C3.75 15.0664 5.76932 18.057 7.71346 20.0476C8.69025 21.0477 9.66491 21.8133 10.3954 22.3293C10.7612 22.5878 11.0675 22.7848 11.2845 22.9184C11.393 22.9852 11.4793 23.0363 11.5397 23.0713ZM12 14.2202C13.6569 14.2202 15 12.8771 15 11.2202C15 9.56336 13.6569 8.22021 12 8.22021C10.3431 8.22021 9 9.56336 9 11.2202C9 12.8771 10.3431 14.2202 12 14.2202Z" fill="#EF7C00"/>
</svg>
