<svg width="24" height="25" viewBox="0 0 24 25" fill="none" xmlns="http://www.w3.org/2000/svg">
<path fill-rule="evenodd" clip-rule="evenodd" d="M1.5 5.22021C1.5 3.56336 2.84315 2.22021 4.5 2.22021H5.87163C6.732 2.22021 7.48197 2.80577 7.69064 3.64046L8.79644 8.06364C8.97941 8.79551 8.70594 9.56576 8.10242 10.0184L6.8088 10.9886C6.67447 11.0894 6.64527 11.2369 6.683 11.3399C7.81851 14.4397 10.2805 16.9017 13.3803 18.0372C13.4833 18.0749 13.6309 18.0457 13.7316 17.9114L14.7018 16.6178C15.1545 16.0143 15.9247 15.7408 16.6566 15.9238L21.0798 17.0296C21.9144 17.2382 22.5 17.9882 22.5 18.8486V20.2202C22.5 21.8771 21.1569 23.2202 19.5 23.2202H17.25C8.55151 23.2202 1.5 16.1687 1.5 7.47021V5.22021Z" fill="#EF7C00"/>
</svg>
