<svg width="48" height="48" viewBox="0 0 48 48" fill="none" xmlns="http://www.w3.org/2000/svg">
<g clip-path="url(#clip0_2003_376)">
<path d="M12.2908 24.5816C12.2181 24.5816 12.1454 24.5816 12.0727 24.5816C9.16356 23.7816 7.1272 21.0907 7.1272 18.0361V15.0543C7.1272 13.3816 8.50902 11.9998 10.1817 11.9998H17.6727C19.3454 11.9998 20.7272 13.3816 20.7272 15.0543V18.0361C20.7272 20.9452 18.8363 23.5634 16.0727 24.5088C15.709 24.6543 15.2727 24.4361 15.1272 24.0725C14.9817 23.7088 15.1999 23.2725 15.5636 23.127C17.7454 22.3998 19.1999 20.3634 19.1999 18.0361V15.0543C19.1999 14.1816 18.4727 13.4543 17.5999 13.4543H10.1817C9.30902 13.4543 8.58174 14.1816 8.58174 15.0543V18.0361C8.58174 20.4361 10.1817 22.5452 12.4363 23.127C12.7999 23.1998 13.0181 23.6361 12.9454 23.9998C12.8727 24.4361 12.5817 24.5816 12.2908 24.5816Z" fill="white"/>
<path d="M18.1818 13.4544C17.7454 13.4544 17.4545 13.1635 17.4545 12.7271V8.4362C17.4545 6.54529 15.9272 5.01802 14.0363 5.01802C12.1454 5.01802 10.6181 6.54529 10.6181 8.4362V12.5089C10.6181 12.9453 10.3272 13.2362 9.89085 13.2362C9.45448 13.2362 9.16357 12.9453 9.16357 12.5089V8.4362C9.16357 5.74529 11.3454 3.56348 14.0363 3.56348C16.7272 3.56348 18.909 5.74529 18.909 8.4362V12.7271C18.909 13.1635 18.6181 13.4544 18.1818 13.4544Z" fill="white"/>
<path d="M15.7816 13.3817C15.3453 13.3817 15.0544 13.0908 15.0544 12.6544V8.72711C15.0544 8.1453 14.6907 7.70893 14.1816 7.6362C13.8907 7.56348 13.5998 7.63621 13.3089 7.85439C13.0907 8.07257 12.9453 8.36348 12.9453 8.65439V12.5089C12.9453 12.9453 12.6544 13.2362 12.218 13.2362C11.7816 13.2362 11.4907 12.9453 11.4907 12.5089V8.65439C11.4907 7.92711 11.7816 7.19984 12.3634 6.76348C12.9453 6.25439 13.6725 6.10893 14.3998 6.25439C15.5634 6.47257 16.4362 7.56348 16.4362 8.79984V12.7271C16.5089 13.0908 16.1453 13.3817 15.7816 13.3817Z" fill="white"/>
<path d="M43.2727 33.3089H25.0181C24.5818 33.3089 24.2908 33.018 24.2908 32.5816C24.2908 32.1452 24.5818 31.8543 25.0181 31.8543H43.3454C44.4363 31.8543 45.309 30.9816 45.309 29.8907V4.14523C45.309 3.05432 44.3636 2.1816 43.2727 2.1816H4.72721C3.6363 2.1816 2.69084 3.05432 2.69084 4.14523V29.818C2.69084 30.9089 3.56357 31.7816 4.65448 31.7816H8.87266C9.30903 31.7816 9.59994 32.0725 9.59994 32.5089C9.59994 32.9452 9.30903 33.2361 8.87266 33.2361H4.72721C2.8363 33.2361 1.30903 31.7089 1.30903 29.818V4.14523C1.2363 2.25432 2.8363 0.727051 4.72721 0.727051H43.3454C45.2363 0.727051 46.7636 2.25432 46.7636 4.14523V29.818C46.7636 31.7816 45.1636 33.3089 43.2727 33.3089Z" fill="white"/>
<path d="M24.1454 42.1816H12.9454C12.6545 42.1816 12.4363 42.0361 12.2909 41.8179C12.0727 41.3816 11.8545 40.9452 11.709 40.5816L11.6363 40.2179C10.909 37.9634 10.0363 35.4907 9.01814 33.6725L6.61814 29.3816C6.47268 29.0907 6.54541 28.6543 6.83632 28.4361C7.41814 27.9998 8.07268 27.7816 8.72723 27.7816C9.74541 27.7816 10.6181 28.2179 11.2 29.0179L11.5636 29.6725V22.3998C11.5636 21.7452 11.8545 21.0907 12.3636 20.6543C12.8727 20.2179 13.6 19.9998 14.2545 20.1452C15.3454 20.3634 16.1454 21.3089 16.1454 22.4725V28.0725C16.4363 27.9998 16.7272 27.927 17.0181 27.927C17.8181 27.927 18.4727 28.3634 18.909 28.9452C19.2727 28.727 19.709 28.5816 20.1454 28.5816C21.1636 28.5816 21.9636 29.2361 22.3272 30.1089C22.6181 29.9634 22.9818 29.8907 23.3454 29.8907C24.5818 29.8907 25.6 30.9089 25.6727 32.1452L25.7454 38.0361C25.7454 38.5452 25.6727 39.2725 25.6 39.9998C25.5272 40.727 25.309 41.0907 25.0909 41.4543C25.0181 41.5998 24.9454 41.7452 24.8727 41.8907C24.7272 42.0361 24.4363 42.1816 24.1454 42.1816ZM13.3818 40.727H23.709C23.709 40.6543 23.7818 40.6543 23.7818 40.5816C24 40.2907 24.0727 40.1452 24.0727 39.7089C24.1454 39.0543 24.2181 38.3998 24.2181 37.9634L24.1454 32.0725C24.1454 31.6361 23.7818 31.1998 23.2727 31.1998C22.8363 31.1998 22.4 31.5634 22.4 32.0725V33.527C22.4 33.9634 22.109 34.2543 21.6727 34.2543C21.2363 34.2543 20.9454 33.9634 20.9454 33.527V30.7634C20.9454 30.327 20.5818 29.8907 20.0727 29.8907C19.5636 29.8907 19.2 30.2543 19.2 30.7634V33.527C19.2 33.8907 18.909 34.2543 18.4727 34.2543C18.0363 34.2543 17.7454 33.9634 17.7454 33.527V33.0179V30.1089C17.7454 29.6725 17.3818 29.2361 16.8727 29.2361C16.4363 29.2361 16 29.5998 16 30.1089V33.527C16 33.9634 15.709 34.2543 15.2727 34.2543C14.8363 34.2543 14.5454 33.9634 14.5454 33.527V22.3998C14.5454 21.9634 14.2545 21.527 13.8909 21.4543C13.6 21.3816 13.3818 21.4543 13.1636 21.6725C13.1636 21.8179 13.0909 22.0361 13.0909 22.327V32.2179C13.0909 32.5816 12.8727 32.8725 12.509 32.9452C12.2181 33.0179 11.8545 32.8725 11.709 32.5816L10.0363 29.8179C9.67268 29.3816 8.94541 29.0907 8.29086 29.3089L10.3272 32.9452C11.4181 34.9089 12.2909 37.4543 13.0181 39.7816L13.1636 40.1452C13.1636 40.2907 13.309 40.5089 13.3818 40.727Z" fill="white"/>
<path d="M25.8909 47.2725H11.2727C10.8363 47.2725 10.5454 46.9816 10.5454 46.5452V41.4543C10.5454 41.018 10.8363 40.7271 11.2727 40.7271H25.8909C26.3272 40.7271 26.6181 41.018 26.6181 41.4543V46.5452C26.6181 46.9816 26.3272 47.2725 25.8909 47.2725ZM12 45.818H25.1636V42.1816H12V45.818Z" fill="white"/>
<path d="M22.6909 7.41791C22.2545 7.41791 21.9636 7.127 21.9636 6.69064V5.38155H20.5818C20.1454 5.38155 19.8545 5.09064 19.8545 4.65427C19.8545 4.21791 20.1454 3.927 20.5818 3.927H22.6909C23.1272 3.927 23.4181 4.21791 23.4181 4.65427V6.69064C23.4181 7.05427 23.1272 7.41791 22.6909 7.41791Z" fill="white"/>
<path d="M5.0908 7.41791C4.65443 7.41791 4.36353 7.127 4.36353 6.69064V4.65427C4.36353 4.21791 4.65443 3.927 5.0908 3.927H7.19989C7.63625 3.927 7.92716 4.21791 7.92716 4.65427C7.92716 5.09064 7.63625 5.38155 7.19989 5.38155H5.81807V6.69064C5.81807 7.05427 5.45443 7.41791 5.0908 7.41791Z" fill="white"/>
<path d="M22.6909 24.5087H20.5818C20.1454 24.5087 19.8545 24.2178 19.8545 23.7815C19.8545 23.3451 20.1454 23.0542 20.5818 23.0542H21.9636V21.7451C21.9636 21.3087 22.2545 21.0178 22.6909 21.0178C23.1272 21.0178 23.4181 21.3087 23.4181 21.7451V23.7815C23.4181 24.2178 23.1272 24.5087 22.6909 24.5087Z" fill="white"/>
<path d="M7.19989 24.5087H5.0908C4.65443 24.5087 4.36353 24.2178 4.36353 23.7815V21.7451C4.36353 21.3087 4.65443 21.0178 5.0908 21.0178C5.52716 21.0178 5.81807 21.3087 5.81807 21.7451V23.0542H7.19989C7.63625 23.0542 7.92716 23.3451 7.92716 23.7815C7.92716 24.2178 7.56353 24.5087 7.19989 24.5087Z" fill="white"/>
<path d="M30.4726 9.52697H26.9089C26.4725 9.52697 26.1816 9.23606 26.1816 8.7997V5.23606C26.1816 4.7997 26.4725 4.50879 26.9089 4.50879H30.4726C30.9089 4.50879 31.1998 4.7997 31.1998 5.23606V8.7997C31.1998 9.23606 30.8362 9.52697 30.4726 9.52697ZM27.6362 8.07243H29.7453V5.96333H27.6362V8.07243Z" fill="white"/>
<path d="M36.6544 9.52697H33.0908C32.6544 9.52697 32.3635 9.23606 32.3635 8.7997V5.23606C32.3635 4.7997 32.6544 4.50879 33.0908 4.50879H36.6544C37.0908 4.50879 37.3817 4.7997 37.3817 5.23606V8.7997C37.3817 9.23606 37.0908 9.52697 36.6544 9.52697ZM33.8181 8.07243H35.9272V5.96333H33.8181V8.07243Z" fill="white"/>
<path d="M42.9088 9.52697H39.3452C38.9088 9.52697 38.6179 9.23606 38.6179 8.7997V5.23606C38.6179 4.7997 38.9088 4.50879 39.3452 4.50879H42.9088C43.3452 4.50879 43.6361 4.7997 43.6361 5.23606V8.7997C43.6361 9.23606 43.2725 9.52697 42.9088 9.52697ZM40.0725 8.07243H42.1816V5.96333H40.0725V8.07243Z" fill="white"/>
<path d="M30.4726 16.2179H26.9089C26.4725 16.2179 26.1816 15.927 26.1816 15.4906V11.927C26.1816 11.4906 26.4725 11.1997 26.9089 11.1997H30.4726C30.9089 11.1997 31.1998 11.4906 31.1998 11.927V15.4906C31.1998 15.8543 30.8362 16.2179 30.4726 16.2179ZM27.6362 14.7633H29.7453V12.6543H27.6362V14.7633Z" fill="white"/>
<path d="M36.6544 16.2179H33.0908C32.6544 16.2179 32.3635 15.927 32.3635 15.4906V11.927C32.3635 11.4906 32.6544 11.1997 33.0908 11.1997H36.6544C37.0908 11.1997 37.3817 11.4906 37.3817 11.927V15.4906C37.3817 15.8543 37.0908 16.2179 36.6544 16.2179ZM33.8181 14.7633H35.9272V12.6543H33.8181V14.7633Z" fill="white"/>
<path d="M42.9088 16.2179H39.3452C38.9088 16.2179 38.6179 15.927 38.6179 15.4906V11.927C38.6179 11.4906 38.9088 11.1997 39.3452 11.1997H42.9088C43.3452 11.1997 43.6361 11.4906 43.6361 11.927V15.4906C43.6361 15.8543 43.2725 16.2179 42.9088 16.2179ZM40.0725 14.7633H42.1816V12.6543H40.0725V14.7633Z" fill="white"/>
<path d="M30.4726 22.8361H26.9089C26.4725 22.8361 26.1816 22.5451 26.1816 22.1088V18.5451C26.1816 18.1088 26.4725 17.8179 26.9089 17.8179H30.4726C30.9089 17.8179 31.1998 18.1088 31.1998 18.5451V22.1088C31.1998 22.5451 30.8362 22.8361 30.4726 22.8361ZM27.6362 21.3815H29.7453V19.2724H27.6362V21.3815Z" fill="white"/>
<path d="M36.6544 22.8361H33.0908C32.6544 22.8361 32.3635 22.5451 32.3635 22.1088V18.5451C32.3635 18.1088 32.6544 17.8179 33.0908 17.8179H36.6544C37.0908 17.8179 37.3817 18.1088 37.3817 18.5451V22.1088C37.3817 22.5451 37.0908 22.8361 36.6544 22.8361ZM33.8181 21.3815H35.9272V19.2724H33.8181V21.3815Z" fill="white"/>
<path d="M42.9088 22.8361H39.3452C38.9088 22.8361 38.6179 22.5451 38.6179 22.1088V18.5451C38.6179 18.1088 38.9088 17.8179 39.3452 17.8179H42.9088C43.3452 17.8179 43.6361 18.1088 43.6361 18.5451V22.1088C43.6361 22.5451 43.2725 22.8361 42.9088 22.8361ZM40.0725 21.3815H42.1816V19.2724H40.0725V21.3815Z" fill="white"/>
<path d="M30.4726 29.4542H26.9089C26.4725 29.4542 26.1816 29.1633 26.1816 28.7269V25.1633C26.1816 24.7269 26.4725 24.436 26.9089 24.436H30.4726C30.9089 24.436 31.1998 24.7269 31.1998 25.1633V28.7269C31.1998 29.1633 30.8362 29.4542 30.4726 29.4542ZM27.6362 27.9997H29.7453V25.8906H27.6362V27.9997Z" fill="white"/>
<path d="M36.6544 29.4542H33.0908C32.6544 29.4542 32.3635 29.1633 32.3635 28.7269V25.1633C32.3635 24.7269 32.6544 24.436 33.0908 24.436H36.6544C37.0908 24.436 37.3817 24.7269 37.3817 25.1633V28.7269C37.3817 29.1633 37.0908 29.4542 36.6544 29.4542ZM33.8181 27.9997H35.9272V25.8906H33.8181V27.9997Z" fill="white"/>
<path d="M42.9088 29.4542H39.3452C38.9088 29.4542 38.6179 29.1633 38.6179 28.7269V25.1633C38.6179 24.7269 38.9088 24.436 39.3452 24.436H42.9088C43.3452 24.436 43.6361 24.7269 43.6361 25.1633V28.7269C43.6361 29.1633 43.2725 29.4542 42.9088 29.4542ZM40.0725 27.9997H42.1816V25.8906H40.0725V27.9997Z" fill="white"/>
</g>
<defs>
<clipPath id="clip0_2003_376">
<rect width="48" height="48" fill="white" transform="translate(0 -0.000244141)"/>
</clipPath>
</defs>
</svg>
