<svg width="48" height="49" viewBox="0 0 48 49" fill="none" xmlns="http://www.w3.org/2000/svg">
<path d="M41.7792 42.2305H21.9456C21.552 42.2305 21.2256 41.9041 21.2256 41.5105C21.2256 41.1169 21.552 40.7905 21.9456 40.7905H41.7696C42.1632 40.7905 42.4896 41.1169 42.4896 41.5105C42.4896 41.9041 42.1728 42.2305 41.7792 42.2305Z" fill="#CCDAF1"/>
<path d="M20.2368 45.1392H16.8096C16.416 45.1392 16.0896 44.8128 16.0896 44.4192C16.0896 44.0256 16.416 43.6992 16.8096 43.6992H20.2368C20.6304 43.6992 20.9568 44.0256 20.9568 44.4192C20.9568 44.8128 20.64 45.1392 20.2368 45.1392Z" fill="#CCDAF1"/>
<path d="M15.0335 45.1393H11.0783C8.00633 45.1393 5.50073 42.6337 5.50073 39.5521V39.3505C5.50073 36.3073 7.94873 33.8305 10.9823 33.7825L11.0975 33.7537C11.1647 33.7345 11.2319 33.7249 11.2991 33.7249L15.0431 33.7825H26.0543C26.4479 33.7825 26.7743 34.1089 26.7743 34.5025C26.7743 34.8961 26.4479 35.2225 26.0543 35.2225L11.3183 35.1841C11.2607 35.2033 11.1455 35.2225 11.0783 35.2225C8.79353 35.2225 6.94073 37.0753 6.94073 39.3505V39.5521C6.94073 41.8369 8.79353 43.6993 11.0783 43.6993H15.0335C15.4271 43.6993 15.7535 44.0257 15.7535 44.4193C15.7535 44.8129 15.4367 45.1393 15.0335 45.1393Z" fill="#CCDAF1"/>
<path d="M39.888 45.1393H21.9456C21.552 45.1393 21.2256 44.8129 21.2256 44.4193C21.2256 44.0257 21.552 43.6993 21.9456 43.6993H39.8784C40.5216 43.6993 41.0496 43.1713 41.0496 42.5185V41.8561C40.128 41.0785 39.6672 40.2625 39.6672 39.4177C39.6768 38.5922 40.1376 37.7953 41.0496 37.0561V35.8753C41.0496 35.5105 40.752 35.2129 40.3872 35.2129H32.9568C32.5632 35.2129 32.2368 34.8865 32.2368 34.4929C32.2368 34.0993 32.5632 33.7729 32.9568 33.7729H40.3872C41.5488 33.7729 42.4896 34.7137 42.4896 35.8753V37.4114C42.4896 37.6418 42.384 37.853 42.192 37.997C41.7024 38.3522 41.1168 38.8994 41.1072 39.437C41.1072 39.9938 41.7024 40.5601 42.2016 40.9345C42.384 41.0689 42.4896 41.2802 42.4896 41.5106V42.5185C42.4992 43.9681 41.328 45.1393 39.888 45.1393Z" fill="#CCDAF1"/>
<path d="M31.6031 35.2225H27.4175C27.0239 35.2225 26.6975 34.8961 26.6975 34.5025C26.6975 34.1089 27.0239 33.7825 27.4175 33.7825H31.6031C31.9967 33.7825 32.3231 34.1089 32.3231 34.5025C32.3231 34.8961 31.9967 35.2225 31.6031 35.2225Z" fill="#CCDAF1"/>
<path d="M15.0335 42.2304H11.1935C9.66711 42.2304 8.42871 40.9824 8.42871 39.456C8.42871 37.9296 9.66711 36.6912 11.1935 36.6912H15.0335C15.4271 36.6912 15.7535 37.0176 15.7535 37.4112C15.7535 37.8048 15.4271 38.1312 15.0335 38.1312H11.1935C10.4639 38.1312 9.86871 38.7264 9.86871 39.456C9.86871 40.1952 10.4639 40.7904 11.1935 40.7904H15.0335C15.4271 40.7904 15.7535 41.1168 15.7535 41.5104C15.7535 41.904 15.4271 42.2304 15.0335 42.2304Z" fill="#CCDAF1"/>
<path d="M41.7792 38.1312H21.9456C21.552 38.1312 21.2256 37.8048 21.2256 37.4112C21.2256 37.0176 21.552 36.6912 21.9456 36.6912H41.7696C42.1632 36.6912 42.4896 37.0176 42.4896 37.4112C42.4896 37.8048 42.1728 38.1312 41.7792 38.1312Z" fill="#CCDAF1"/>
<path d="M21.9455 47.2801C21.7055 47.2801 21.4751 47.1553 21.3407 46.9537L18.4895 42.5185L15.6383 46.9537C15.4655 47.2225 15.1391 47.3474 14.8319 47.2514C14.5247 47.165 14.3135 46.8769 14.3135 46.5601V34.4929C14.3135 34.0993 14.6399 33.7729 15.0335 33.7729H21.9455C22.3391 33.7729 22.6655 34.0993 22.6655 34.4929V46.5601C22.6655 46.8769 22.4543 47.165 22.1471 47.2514C22.0799 47.2706 22.0127 47.2801 21.9455 47.2801ZM18.4895 40.4642C18.7391 40.4642 18.9599 40.589 19.0943 40.7906L21.2255 44.1122V35.2225H15.7535V44.1122L17.8847 40.7906C18.0191 40.589 18.2495 40.4642 18.4895 40.4642Z" fill="#CCDAF1"/>
<path d="M26.0543 32.2942H6.22073C5.82713 32.2942 5.50073 31.9678 5.50073 31.5742C5.50073 31.1806 5.82713 30.8542 6.22073 30.8542H26.0447C26.4383 30.8542 26.7647 31.1806 26.7647 31.5742C26.7647 31.9678 26.4479 32.2942 26.0543 32.2942Z" fill="#CCDAF1"/>
<path d="M31.1904 35.2032H27.7632C27.3696 35.2032 27.0432 34.8768 27.0432 34.4832C27.0432 34.0896 27.3696 33.7632 27.7632 33.7632H31.1904C31.584 33.7632 31.9104 34.0896 31.9104 34.4832C31.9104 34.8768 31.584 35.2032 31.1904 35.2032Z" fill="#CCDAF1"/>
<path d="M36.9119 35.2031H32.9663C32.5727 35.2031 32.2463 34.8767 32.2463 34.4831C32.2463 34.0895 32.5727 33.7631 32.9663 33.7631H36.9119C39.1967 33.7631 41.0495 31.9103 41.0495 29.6255V29.4143C41.0495 27.1391 39.1871 25.2863 36.9119 25.2863C36.8543 25.2863 36.7871 25.2767 36.7295 25.2671L36.6143 25.2383L32.9663 25.2863H7.60305C7.23825 25.2863 6.94065 25.5839 6.94065 25.9487V27.2063C8.17905 28.6847 8.17905 30.3167 6.94065 31.8431V32.6015C6.94065 33.2447 7.46865 33.7727 8.11185 33.7727H26.0447C26.4383 33.7727 26.7647 34.0991 26.7647 34.4927C26.7647 34.8863 26.4383 35.2127 26.0447 35.2127H8.12145C6.68145 35.2127 5.51025 34.0415 5.51025 32.6015V31.5839C5.51025 31.4111 5.57745 31.2383 5.69265 31.1039C6.69105 29.9807 6.69105 29.0495 5.70225 27.9743C5.57745 27.8399 5.51025 27.6671 5.51025 27.4847V25.9583C5.51025 24.7967 6.45105 23.8559 7.61265 23.8559H32.9759L36.7103 23.7983C36.7775 23.7983 36.8351 23.8079 36.9023 23.8175L37.0271 23.8463C40.0607 23.8943 42.5087 26.3807 42.5087 29.4143V29.6255C42.4991 32.6975 39.9935 35.2031 36.9119 35.2031Z" fill="#CCDAF1"/>
<path d="M36.8063 32.2943H32.9663C32.5727 32.2943 32.2463 31.9679 32.2463 31.5743C32.2463 31.1807 32.5727 30.8543 32.9663 30.8543H36.8063C37.5359 30.8543 38.1311 30.2591 38.1311 29.5199C38.1311 28.7903 37.5359 28.1951 36.8063 28.1951H32.9663C32.5727 28.1951 32.2463 27.8687 32.2463 27.4751C32.2463 27.0815 32.5727 26.7551 32.9663 26.7551H36.8063C38.3327 26.7551 39.5711 27.9935 39.5711 29.5199C39.5807 31.0463 38.3327 32.2943 36.8063 32.2943Z" fill="#CCDAF1"/>
<path d="M26.0543 28.1951H6.22073C5.82713 28.1951 5.50073 27.8687 5.50073 27.4751C5.50073 27.0815 5.82713 26.7551 6.22073 26.7551H26.0447C26.4383 26.7551 26.7647 27.0815 26.7647 27.4751C26.7647 27.8687 26.4479 28.1951 26.0543 28.1951Z" fill="#CCDAF1"/>
<path d="M32.9662 37.344C32.7262 37.344 32.4958 37.2192 32.3614 37.0176L29.5102 32.5824L26.659 37.0176C26.4862 37.2864 26.1598 37.4112 25.8526 37.3152C25.5454 37.2288 25.3342 36.9408 25.3342 36.624V24.5664C25.3342 24.1728 25.6606 23.8464 26.0542 23.8464H32.9662C33.3598 23.8464 33.6862 24.1728 33.6862 24.5664V36.624C33.6862 36.9408 33.475 37.2288 33.1678 37.3152C33.1006 37.3344 33.0334 37.344 32.9662 37.344ZM29.5102 30.528C29.7598 30.528 29.9806 30.6528 30.115 30.8544L32.2462 34.176V25.2864H26.7742V34.176L28.9054 30.8544C29.0398 30.6528 29.2606 30.528 29.5102 30.528Z" fill="#CCDAF1"/>
<path d="M27.216 21.5039H20.784C20.3904 21.5039 20.064 21.1775 20.064 20.7839V19.7087C20.064 18.1151 19.5936 17.4623 18.6432 16.1567L18.2976 15.6671C17.3184 14.2943 16.8768 12.5951 17.0496 10.9055C17.3856 7.66068 19.968 5.04948 23.2032 4.69428C25.1904 4.47348 27.1776 5.10708 28.656 6.43188C30.1344 7.75668 30.9792 9.65748 30.9792 11.6351C30.9792 13.0463 30.5568 14.3999 29.7696 15.5519L29.4624 15.9935C28.4352 17.4815 27.9264 18.2303 27.9264 19.9679V20.7743C27.936 21.1871 27.6192 21.5039 27.216 21.5039ZM21.504 20.0639H26.496V19.9775C26.496 17.7791 27.2448 16.6943 28.2912 15.1871L28.5888 14.7551C29.2128 13.8335 29.5488 12.7583 29.5488 11.6447C29.5488 10.0703 28.8768 8.56308 27.696 7.50708C26.5056 6.44148 24.9696 5.95188 23.3664 6.13428C20.8032 6.42228 18.7488 8.48628 18.4896 11.0591C18.3552 12.4031 18.7008 13.7471 19.4784 14.8415L19.824 15.3215C20.8032 16.6847 21.5136 17.6639 21.5136 19.7183V20.0639H21.504Z" fill="#CCDAF1"/>
<path d="M27.2544 23.0784H20.7552C19.92 23.0784 19.248 22.4064 19.248 21.5712C19.248 20.736 19.92 20.064 20.7552 20.064H27.2544C28.0896 20.064 28.7616 20.7456 28.7616 21.5712C28.7616 22.3968 28.08 23.0784 27.2544 23.0784ZM20.7456 21.504C20.7072 21.504 20.6784 21.5328 20.6784 21.5712L27.2448 21.6384C27.2832 21.6384 27.312 21.6096 27.312 21.5712C27.312 21.5328 27.2832 21.504 27.2448 21.504H20.7456Z" fill="#CCDAF1"/>
<path d="M24.0001 25.2288C22.4929 25.2288 21.2737 24 21.2737 22.5024V22.3679C21.2737 21.9743 21.6001 21.6479 21.9937 21.6479C22.3873 21.6479 22.7137 21.9743 22.7137 22.3679V22.5024C22.7137 23.2128 23.2897 23.7888 24.0001 23.7888C24.7105 23.7888 25.2865 23.2128 25.2865 22.5024V22.3679C25.2865 21.9743 25.6129 21.6479 26.0065 21.6479C26.4001 21.6479 26.7265 21.9743 26.7265 22.3679V22.5024C26.7265 24.0096 25.5073 25.2288 24.0001 25.2288Z" fill="#CCDAF1"/>
<path d="M24 21.5038C23.6064 21.5038 23.28 21.1774 23.28 20.7838V17.011C23.28 16.6174 23.6064 16.291 24 16.291C24.3936 16.291 24.72 16.6174 24.72 17.011V20.7838C24.72 21.187 24.3936 21.5038 24 21.5038Z" fill="#CCDAF1"/>
<path d="M24.0001 17.731C22.8769 17.731 21.9553 16.8094 21.9553 15.6862C21.9553 14.563 22.8769 13.6414 24.0001 13.6414C25.1233 13.6414 26.0449 14.563 26.0449 15.6862C26.0449 16.8094 25.1233 17.731 24.0001 17.731ZM24.0001 15.0814C23.6641 15.0814 23.3953 15.3502 23.3953 15.6862C23.3953 16.0222 23.6641 16.291 24.0001 16.291C24.3361 16.291 24.6049 16.0222 24.6049 15.6862C24.6049 15.3502 24.3361 15.0814 24.0001 15.0814Z" fill="#CCDAF1"/>
<path d="M23.9998 3.80155C23.6062 3.80155 23.2798 3.47515 23.2798 3.08155V1.91995C23.2798 1.52635 23.6062 1.19995 23.9998 1.19995C24.3934 1.19995 24.7198 1.52635 24.7198 1.91995V3.08155C24.7198 3.47515 24.3934 3.80155 23.9998 3.80155Z" fill="#CCDAF1"/>
<path d="M15.1007 12.2112H13.8719C13.4783 12.2112 13.1519 11.8848 13.1519 11.4912C13.1519 11.0976 13.4783 10.7712 13.8719 10.7712H15.1007C15.4943 10.7712 15.8207 11.0976 15.8207 11.4912C15.8207 11.8848 15.4943 12.2112 15.1007 12.2112Z" fill="#CCDAF1"/>
<path d="M34.1278 12.2112H32.899C32.5054 12.2112 32.179 11.8848 32.179 11.4912C32.179 11.0976 32.5054 10.7712 32.899 10.7712H34.1278C34.5214 10.7712 34.8478 11.0976 34.8478 11.4912C34.8478 11.8848 34.531 12.2112 34.1278 12.2112Z" fill="#CCDAF1"/>
<path d="M17.7022 6.26874C17.5198 6.26874 17.347 6.20154 17.203 6.06714L16.3294 5.24154C16.0414 4.97274 16.0318 4.51194 16.3006 4.22394C16.579 3.93594 17.0302 3.92634 17.3182 4.19514L18.1918 5.02074C18.4798 5.28954 18.4894 5.75034 18.2206 6.03834C18.0862 6.19194 17.8942 6.26874 17.7022 6.26874Z" fill="#CCDAF1"/>
<path d="M31.1614 18.9792C30.979 18.9792 30.8062 18.912 30.6622 18.7776L29.7886 17.952C29.5006 17.6832 29.491 17.2224 29.7598 16.9344C30.0286 16.6464 30.4894 16.6368 30.7774 16.9056L31.651 17.7312C31.939 18 31.9486 18.4608 31.6798 18.7488C31.5454 18.9024 31.3534 18.9792 31.1614 18.9792Z" fill="#CCDAF1"/>
<path d="M16.8383 18.9792C16.6463 18.9792 16.4543 18.9024 16.3199 18.7488C16.0511 18.4608 16.0607 18 16.3487 17.7312L17.2223 16.9056C17.5103 16.6368 17.9615 16.6464 18.2399 16.9344C18.5087 17.2224 18.4991 17.6832 18.2111 17.952L17.3375 18.7776C17.1935 18.9216 17.0111 18.9792 16.8383 18.9792Z" fill="#CCDAF1"/>
<path d="M30.2975 6.26874C30.1055 6.26874 29.9135 6.19194 29.7791 6.03834C29.5103 5.75034 29.5199 5.28954 29.8079 5.02074L30.6815 4.19514C30.9695 3.92634 31.4303 3.93594 31.6991 4.22394C31.9679 4.51194 31.9583 4.97274 31.6703 5.24154L30.7967 6.06714C30.6527 6.20154 30.4703 6.26874 30.2975 6.26874Z" fill="#CCDAF1"/>
</svg>
