<svg width="48" height="49" viewBox="0 0 48 49" fill="none" xmlns="http://www.w3.org/2000/svg">
<g clip-path="url(#clip0_14_22456)">
<path d="M42.9091 28.9673H40.9454C40.5091 28.9673 40.2182 28.6764 40.2182 28.24C40.2182 27.8036 40.5091 27.5127 40.9454 27.5127H42.6182L45.8182 24.9673V23.5854L42.3272 21.04H36.6545C36.2182 21.04 35.9272 20.7491 35.9272 20.3127C35.9272 19.8764 36.2182 19.5854 36.6545 19.5854H42.5454C42.6909 19.5854 42.8363 19.6582 42.9818 19.7309L46.9818 22.64C47.2 22.7854 47.2727 23.0036 47.2727 23.2218V25.3309C47.2727 25.5491 47.2 25.7673 46.9818 25.9127L43.3454 28.8218C43.2727 28.8945 43.1272 28.9673 42.9091 28.9673Z" fill="#CCDAF1"/>
<path d="M11.6364 35.149C5.60002 35.149 0.727295 30.2763 0.727295 24.2399C0.727295 18.2035 5.60002 13.3308 11.6364 13.3308C15.8546 13.3308 19.7091 15.7308 21.5273 19.5854H42.6182C42.7637 19.5854 42.9091 19.6581 43.0546 19.7308L47.0546 22.6399C47.2727 22.7854 47.3455 23.0035 47.3455 23.2217V25.3308C47.3455 25.549 47.2727 25.7672 47.0546 25.9126L43.4182 28.8217C43.2728 28.8944 43.1273 28.9672 42.9818 28.9672H41.0182C40.8728 28.9672 40.8 28.9672 40.6546 28.8944L38.3273 27.5854L35.4909 28.8944C35.2 29.0399 34.9091 28.9672 34.6909 28.749L32.2909 26.5672L29.3091 28.749C29.0182 28.9672 28.5818 28.8944 28.3637 28.6763L26.2546 26.2763L24.0727 28.6035C23.9273 28.749 23.7091 28.8217 23.5637 28.8217H21.6C19.7091 32.6763 15.8546 35.149 11.6364 35.149ZM11.6364 14.7854C6.40002 14.7854 2.18184 19.0035 2.18184 24.2399C2.18184 29.4763 6.40002 33.6944 11.6364 33.6944C15.4909 33.6944 18.9091 31.4399 20.3637 27.8763C20.5091 27.5854 20.7273 27.4399 21.0182 27.4399H23.2L25.7455 24.749C25.8909 24.6035 26.1091 24.5308 26.2546 24.5308C26.4727 24.5308 26.6182 24.6035 26.7637 24.749L28.9455 27.2217L31.9273 25.0399C32.2182 24.8217 32.5818 24.8217 32.8727 25.1126L35.3455 27.3672L38.1091 26.0581C38.3273 25.9854 38.5455 25.9854 38.7637 26.0581L41.2364 27.4399H42.7637L45.8182 24.9672V23.5854L42.3273 21.0399H21.1637C20.8 21.1126 20.5091 20.8944 20.3637 20.6035C18.9091 17.0399 15.4909 14.7854 11.6364 14.7854Z" fill="#CCDAF1"/>
<path d="M9.96358 30.5674C9.81812 30.5674 9.67267 30.4946 9.59994 30.4219C9.23631 30.2037 9.16358 29.7674 9.38176 29.4037C9.59994 29.0401 10.109 28.2401 10.4727 27.0037C10.6181 26.6401 10.9818 26.4219 11.3454 26.4946C11.709 26.6401 11.9272 27.0037 11.8545 27.3674C11.4181 28.7492 10.909 29.6946 10.6181 30.131C10.3999 30.4946 10.1818 30.5674 9.96358 30.5674Z" fill="#CCDAF1"/>
<path d="M18.4726 28.7492C18.3999 28.7492 18.3999 28.7492 18.3271 28.7492C17.9635 28.6764 17.6726 28.2401 17.7453 27.8764C18.0362 26.6401 18.1817 25.331 18.1817 24.0219C18.2544 22.2764 17.5999 20.6037 16.3635 19.2946C15.2726 18.131 13.8908 17.4764 12.2908 17.2583C11.9271 17.1855 11.6362 16.8219 11.6362 16.4583C11.709 16.0946 12.0726 15.8037 12.4362 15.8037C14.3271 16.0219 16.0726 16.8946 17.3817 18.2764C18.8362 19.8764 19.6362 21.9128 19.5635 24.0219C19.4908 25.4037 19.3453 26.7855 19.0544 28.1673C19.1271 28.531 18.8362 28.7492 18.4726 28.7492Z" fill="#CCDAF1"/>
<path d="M3.99991 26.2764C3.92718 26.2764 3.85446 26.2764 3.78173 26.2037C3.41809 26.0582 3.19991 25.6219 3.34537 25.2582C3.49082 24.9673 3.63627 24.3855 3.63627 23.5855C3.709 19.6582 6.61809 16.3855 10.4726 15.8037C10.8363 15.731 11.2726 16.0219 11.2726 16.3855C11.3454 16.7492 11.0545 17.1855 10.6908 17.1855C7.49082 17.6219 5.16355 20.3128 5.09082 23.5128C5.09082 24.3128 4.94537 25.0401 4.72718 25.6219C4.509 26.0582 4.29082 26.2764 3.99991 26.2764Z" fill="#CCDAF1"/>
<path d="M15.4909 30.3491C15.4182 30.3491 15.3454 30.3491 15.2727 30.2763C14.9091 30.1309 14.6909 29.6945 14.8363 29.3309C15.4182 27.6581 15.7818 25.84 15.8545 23.8763C15.8545 23.6581 15.8545 23.44 15.8545 23.2218C15.7818 22.8581 16.0727 22.4945 16.5091 22.4218C16.9454 22.3491 17.2363 22.64 17.3091 23.0763C17.3091 23.3672 17.3818 23.6581 17.3818 23.9491C17.3091 26.0581 16.9454 28.0218 16.2909 29.84C16.0727 30.2036 15.7818 30.3491 15.4909 30.3491Z" fill="#CCDAF1"/>
<path d="M5.59981 28.24C5.45435 28.24 5.3089 28.24 5.23617 28.0945C4.87254 27.8763 4.79981 27.44 5.01799 27.0763C5.09072 26.9309 5.16345 26.7854 5.3089 26.7127C5.38163 26.64 5.96345 25.6218 6.03617 23.6582C6.1089 20.6036 8.58163 18.2036 11.6362 18.2036H11.7816C13.2362 18.2763 14.6907 18.8582 15.7089 19.9491C15.9998 20.24 16.2907 20.6036 16.5089 20.9672C16.7271 21.3309 16.5816 21.7672 16.218 21.9854C15.8544 22.2036 15.418 22.0582 15.1998 21.6945C15.0544 21.4036 14.8362 21.1854 14.618 20.8945C13.818 20.0945 12.7998 19.6582 11.7089 19.5854H11.5634C9.3089 19.5854 7.49072 21.3309 7.41799 23.6582C7.34526 25.9854 6.54526 27.2945 6.39981 27.5127C6.32708 27.6582 6.25435 27.7309 6.18163 27.8036C6.1089 28.1673 5.89072 28.24 5.59981 28.24Z" fill="#CCDAF1"/>
<path d="M12.5818 30.8582C12.5091 30.8582 12.3636 30.8582 12.2909 30.7855C11.9272 30.64 11.7818 30.2037 12 29.84C12.4363 28.9673 13.0182 27.5855 13.2363 25.6946C13.3091 25.3309 13.6727 25.04 14.0363 25.04C14.4 25.1128 14.6909 25.4764 14.6909 25.84C14.4727 27.5128 13.9636 29.04 13.3091 30.4219C13.0909 30.7128 12.8727 30.8582 12.5818 30.8582Z" fill="#CCDAF1"/>
<path d="M7.63616 29.6947C7.4907 29.6947 7.41798 29.6947 7.27252 29.622C6.90889 29.4038 6.83616 28.9674 6.98161 28.6038C7.05434 28.4584 7.12707 28.3129 7.27252 28.2402C7.41798 28.1674 8.43616 26.7129 8.50889 23.8038C8.58161 22.0584 9.96343 20.7493 11.7089 20.7493H11.7816C13.5271 20.822 14.9089 22.2765 14.8362 24.022C14.8362 24.3856 14.4725 24.7493 14.1089 24.7493C13.6725 24.7493 13.3816 24.3856 13.3816 24.022C13.3816 23.0765 12.6543 22.2765 11.7089 22.2765C10.7634 22.2765 9.96343 23.0038 9.96343 23.9493C9.8907 27.222 8.58161 29.0402 8.43616 29.2584C8.36343 29.3311 8.2907 29.4038 8.2907 29.4765C8.14525 29.5493 7.85434 29.6947 7.63616 29.6947Z" fill="#CCDAF1"/>
<path d="M33.9638 20.6764C33.5275 20.6764 33.2366 20.3855 33.2366 19.9492V14.4946C33.2366 14.0582 33.5275 13.7673 33.9638 13.7673H40.2184C40.6548 13.7673 40.9457 14.0582 40.9457 14.4946C40.9457 14.931 40.6548 15.2219 40.2184 15.2219H34.6911V19.9492C34.6911 20.3128 34.3275 20.6764 33.9638 20.6764Z" fill="#CCDAF1"/>
<path d="M30.5456 20.8217C30.1093 20.8217 29.8184 20.5308 29.8184 20.0944V10.4944C29.8184 10.0581 30.1093 9.76717 30.5456 9.76717H34.1093L36.2911 6.9308C36.4365 6.78535 36.6547 6.63989 36.8729 6.63989H39.2729C39.7093 6.63989 40.0002 6.9308 40.0002 7.36717C40.0002 7.80353 39.7093 8.09444 39.2729 8.09444H37.1638L34.982 10.9308C34.8365 11.0763 34.6184 11.2217 34.4002 11.2217H31.2729V20.0217C31.2729 20.4581 30.982 20.8217 30.5456 20.8217Z" fill="#CCDAF1"/>
<path d="M26.7636 21.0401C26.3273 21.0401 26.0364 20.7492 26.0364 20.3128V6.93102C26.0364 6.64011 26.1818 6.42193 26.4 6.27648L29.5273 4.38557C29.8909 4.16739 30.3273 4.31284 30.5455 4.60375C30.7637 4.96739 30.6182 5.40375 30.3273 5.62193L27.5637 7.29466V20.2401C27.4909 20.6765 27.1273 21.0401 26.7636 21.0401Z" fill="#CCDAF1"/>
<path d="M42.2546 17.2582C40.7273 17.2582 39.491 16.0219 39.491 14.4946C39.491 12.9673 40.7273 11.731 42.2546 11.731C43.7819 11.731 45.0182 12.9673 45.0182 14.4946C45.0182 16.0219 43.7819 17.2582 42.2546 17.2582ZM42.2546 13.1855C41.5273 13.1855 40.9455 13.7673 40.9455 14.4946C40.9455 15.2219 41.5273 15.8037 42.2546 15.8037C42.9819 15.8037 43.5637 15.2219 43.5637 14.4946C43.5637 13.7673 42.9819 13.1855 42.2546 13.1855Z" fill="#CCDAF1"/>
<path d="M41.3093 10.2038C39.782 10.2038 38.5457 8.9674 38.5457 7.44012C38.5457 5.91285 39.782 4.60376 41.3093 4.60376C42.8366 4.60376 44.0729 5.84012 44.0729 7.3674C44.0729 8.89467 42.8366 10.2038 41.3093 10.2038ZM41.3093 6.05831C40.582 6.05831 40.0002 6.64012 40.0002 7.3674C40.0002 8.09467 40.582 8.67649 41.3093 8.67649C42.0366 8.67649 42.6184 8.09467 42.6184 7.3674C42.6184 6.71285 42.0366 6.05831 41.3093 6.05831Z" fill="#CCDAF1"/>
<path d="M31.9275 6.49456C30.4002 6.49456 29.1638 5.25819 29.1638 3.73092C29.1638 2.20365 30.4002 0.967285 31.9275 0.967285C33.4547 0.967285 34.6911 2.20365 34.6911 3.73092C34.6911 5.25819 33.4547 6.49456 31.9275 6.49456ZM31.9275 2.42183C31.2002 2.42183 30.6184 3.00365 30.6184 3.73092C30.6184 4.45819 31.2002 5.04001 31.9275 5.04001C32.6547 5.04001 33.2365 4.45819 33.2365 3.73092C33.2365 3.00365 32.6547 2.42183 31.9275 2.42183Z" fill="#CCDAF1"/>
<path d="M22.5457 20.24C22.1093 20.24 21.8184 19.9491 21.8184 19.5127V9.54905L18.182 6.05814C17.8911 5.76723 17.8911 5.33087 18.182 5.03996C18.473 4.74905 18.9093 4.74905 19.2002 5.03996L23.0548 8.74905C23.2002 8.89451 23.273 9.03996 23.273 9.25814V19.5127C23.273 19.8763 22.982 20.24 22.5457 20.24Z" fill="#CCDAF1"/>
<path d="M17.091 7.07634C15.5638 7.07634 14.3274 5.83998 14.3274 4.31271C14.3274 2.78544 15.5638 1.54907 17.091 1.54907C18.6183 1.54907 19.8547 2.78544 19.8547 4.31271C19.8547 5.83998 18.6183 7.07634 17.091 7.07634ZM17.091 2.93089C16.3638 2.93089 15.7819 3.51271 15.7819 4.23998C15.7819 4.96725 16.3638 5.54907 17.091 5.54907C17.8183 5.54907 18.4001 4.96725 18.4001 4.23998C18.4001 3.58544 17.8183 2.93089 17.091 2.93089Z" fill="#CCDAF1"/>
<path d="M40.2184 34.7126H33.9638C33.5275 34.7126 33.2366 34.4217 33.2366 33.9853V27.2944C33.2366 26.858 33.5275 26.5671 33.9638 26.5671C34.4002 26.5671 34.6911 26.858 34.6911 27.2944V33.258H40.2184C40.6548 33.258 40.9457 33.549 40.9457 33.9853C40.9457 34.4217 40.582 34.7126 40.2184 34.7126Z" fill="#CCDAF1"/>
<path d="M39.2729 41.8399H36.8729C36.6547 41.8399 36.4365 41.7671 36.2911 41.549L34.1093 38.7126H30.5456C30.1093 38.7126 29.8184 38.4217 29.8184 37.9853V27.2944C29.8184 26.858 30.1093 26.5671 30.5456 26.5671C30.982 26.5671 31.2729 26.858 31.2729 27.2944V37.258H34.4729C34.6911 37.258 34.9093 37.3308 35.0547 37.549L37.2365 40.3853H39.2729C39.7093 40.3853 40.0002 40.6762 40.0002 41.1126C40.0002 41.549 39.7093 41.8399 39.2729 41.8399Z" fill="#CCDAF1"/>
<path d="M29.8909 44.1672C29.7455 44.1672 29.6 44.1672 29.5273 44.0945L26.4 42.2036C26.1818 42.0581 26.0364 41.84 26.0364 41.549V26.2036C26.0364 25.7672 26.3273 25.4763 26.7636 25.4763C27.2 25.4763 27.4909 25.7672 27.4909 26.2036V41.1127L30.2546 42.7854C30.6182 43.0036 30.6909 43.44 30.4727 43.8036C30.3273 44.0218 30.1091 44.1672 29.8909 44.1672Z" fill="#CCDAF1"/>
<path d="M42.2546 36.749C40.7273 36.749 39.491 35.5126 39.491 33.9853C39.491 32.458 40.7273 31.2217 42.2546 31.2217C43.7819 31.2217 45.0182 32.458 45.0182 33.9853C45.0182 35.5126 43.7819 36.749 42.2546 36.749ZM42.2546 32.6762C41.5273 32.6762 40.9455 33.258 40.9455 33.9853C40.9455 34.7126 41.5273 35.2944 42.2546 35.2944C42.9819 35.2944 43.5637 34.7126 43.5637 33.9853C43.5637 33.258 42.9819 32.6762 42.2546 32.6762Z" fill="#CCDAF1"/>
<path d="M41.3093 43.8764C39.782 43.8764 38.5457 42.64 38.5457 41.1128C38.5457 39.5855 39.782 38.3491 41.3093 38.3491C42.8366 38.3491 44.0729 39.5855 44.0729 41.1128C44.0729 42.64 42.8366 43.8764 41.3093 43.8764ZM41.3093 39.7309C40.582 39.7309 40.0002 40.3128 40.0002 41.04C40.0002 41.7673 40.582 42.3491 41.3093 42.3491C42.0366 42.3491 42.6184 41.7673 42.6184 41.04C42.6184 40.3855 42.0366 39.7309 41.3093 39.7309Z" fill="#CCDAF1"/>
<path d="M31.9275 47.5126C30.4002 47.5126 29.1638 46.2763 29.1638 44.749C29.1638 43.2217 30.4002 41.9854 31.9275 41.9854C33.4547 41.9854 34.6911 43.2217 34.6911 44.749C34.6911 46.2763 33.4547 47.5126 31.9275 47.5126ZM31.9275 43.4399C31.2002 43.4399 30.6184 44.0217 30.6184 44.749C30.6184 45.4763 31.2002 46.0581 31.9275 46.0581C32.6547 46.0581 33.2365 45.4763 33.2365 44.749C33.2365 44.0217 32.6547 43.4399 31.9275 43.4399Z" fill="#CCDAF1"/>
<path d="M18.7636 43.7309C18.5455 43.7309 18.4 43.6582 18.2546 43.5127C17.9636 43.2218 17.9636 42.7854 18.2546 42.4945L21.8909 39.0036V28.9673C21.8909 28.5309 22.1818 28.24 22.6182 28.24C23.0546 28.24 23.3455 28.5309 23.3455 28.9673V39.2218C23.3455 39.44 23.2727 39.5854 23.1273 39.7309L19.2727 43.44C19.1273 43.6582 18.9091 43.7309 18.7636 43.7309Z" fill="#CCDAF1"/>
<path d="M17.091 47.0036C15.5638 47.0036 14.3274 45.7672 14.3274 44.24C14.3274 42.7127 15.5638 41.4763 17.091 41.4763C18.6183 41.4763 19.8547 42.7127 19.8547 44.24C19.8547 45.7672 18.6183 47.0036 17.091 47.0036ZM17.091 42.8581C16.3638 42.8581 15.7819 43.44 15.7819 44.1672C15.7819 44.8945 16.3638 45.4763 17.091 45.4763C17.8183 45.4763 18.4001 44.8945 18.4001 44.1672C18.4001 43.44 17.8183 42.8581 17.091 42.8581Z" fill="#CCDAF1"/>
</g>
<defs>
<clipPath id="clip0_14_22456">
<rect width="48" height="48" fill="white" transform="translate(0 0.23999)"/>
</clipPath>
</defs>
</svg>
