<svg width="48" height="49" viewBox="0 0 48 49" fill="none" xmlns="http://www.w3.org/2000/svg">
<g clip-path="url(#clip0_14_22584)">
<path d="M39.1273 28.8218H8.87275C4.43639 28.8218 0.727295 25.1855 0.727295 20.6764C0.727295 16.3127 4.14548 12.7491 8.43639 12.5309C8.80002 8.60365 12.0728 5.5491 16.0728 5.5491C18.1091 5.5491 20.0728 6.3491 21.4546 7.73092C22.6909 3.80365 26.4 0.967285 30.6909 0.967285C35.9273 0.967285 40.2182 5.25819 40.2182 10.4946C40.2182 11.2218 40.1455 11.9491 40 12.6036C44.0728 13.1127 47.2 16.5309 47.2 20.6764C47.2728 25.1855 43.5637 28.8218 39.1273 28.8218ZM8.87275 14.0582C5.23639 14.0582 2.18184 17.04 2.18184 20.6764C2.18184 24.3127 5.16366 27.3673 8.87275 27.3673H39.1273C42.8364 27.3673 45.8182 24.3855 45.8182 20.6764C45.8182 16.9673 42.7637 14.0582 39.1273 14.0582C38.9091 14.0582 38.6909 13.9127 38.5455 13.7673C38.4 13.6218 38.3273 13.3309 38.4 13.1127C38.6909 12.3127 38.8364 11.44 38.8364 10.5673C38.8364 6.05819 35.2 2.42183 30.6909 2.42183C26.6182 2.42183 23.2 5.47638 22.6909 9.47638C22.6909 9.69456 22.5455 9.91274 22.3273 9.98547C22.1091 10.1309 21.8909 10.1309 21.6728 10.0582C21.5273 9.98547 21.3818 9.91274 21.3091 9.76729C20.1455 8.09456 18.1818 7.07638 16.1455 7.07638C12.9455 7.07638 10.2546 9.5491 9.96366 12.6764C10.4 12.7491 10.7637 12.8218 11.2 12.8946C11.5637 13.04 11.7818 13.4036 11.7091 13.7673C11.5637 14.1309 11.2 14.3491 10.8364 14.2764C10.1091 14.1309 9.5273 14.0582 8.87275 14.0582Z" fill="#CCDAF1"/>
<path d="M27.0546 23.8765H20.9455C19.7819 23.8765 18.7637 22.9311 18.7637 21.6947V15.5856C18.7637 14.422 19.7091 13.4038 20.9455 13.4038H27.0546C28.2182 13.4038 29.2364 14.3493 29.2364 15.5856V21.6947C29.2364 22.8584 28.2182 23.8765 27.0546 23.8765ZM20.9455 14.8584C20.5819 14.8584 20.2182 15.1493 20.2182 15.5856V21.6947C20.2182 22.0584 20.5091 22.422 20.9455 22.422H27.0546C27.4182 22.422 27.7819 22.1311 27.7819 21.6947V15.5856C27.7819 15.222 27.4909 14.8584 27.0546 14.8584H20.9455Z" fill="#CCDAF1"/>
<path d="M24.9454 20.7492H23.0545C22.4 20.7492 21.8909 20.2401 21.8909 19.5856V17.6946C21.8909 17.0401 22.4 16.531 23.0545 16.531H24.9454C25.6 16.531 26.1091 17.0401 26.1091 17.6946V19.5856C26.1091 20.2401 25.6 20.7492 24.9454 20.7492ZM23.3454 19.2946H24.7272V17.9128H23.3454V19.2946Z" fill="#CCDAF1"/>
<path d="M21.3818 14.8583C20.9455 14.8583 20.6545 14.5674 20.6545 14.131V12.6037C20.6545 12.1674 20.9455 11.8765 21.3818 11.8765C21.8182 11.8765 22.1091 12.1674 22.1091 12.6037V14.131C22.1091 14.4946 21.7455 14.8583 21.3818 14.8583Z" fill="#CCDAF1"/>
<path d="M24 14.8583C23.5636 14.8583 23.2727 14.5674 23.2727 14.131V12.6037C23.2727 12.1674 23.5636 11.8765 24 11.8765C24.4363 11.8765 24.7273 12.1674 24.7273 12.6037V14.131C24.7273 14.4946 24.4363 14.8583 24 14.8583Z" fill="#CCDAF1"/>
<path d="M26.6181 14.8583C26.1818 14.8583 25.8909 14.5674 25.8909 14.131V12.6037C25.8909 12.1674 26.1818 11.8765 26.6181 11.8765C27.0545 11.8765 27.3454 12.1674 27.3454 12.6037V14.131C27.3454 14.4946 27.0545 14.8583 26.6181 14.8583Z" fill="#CCDAF1"/>
<path d="M21.3818 25.3309C20.9455 25.3309 20.6545 25.04 20.6545 24.6037V23.0764C20.6545 22.64 20.9455 22.3491 21.3818 22.3491C21.8182 22.3491 22.1091 22.64 22.1091 23.0764V24.6037C22.1091 25.04 21.7455 25.3309 21.3818 25.3309Z" fill="#CCDAF1"/>
<path d="M26.6181 25.3309C26.1818 25.3309 25.8909 25.04 25.8909 24.6037V23.0764C25.8909 22.64 26.1818 22.3491 26.6181 22.3491C27.0545 22.3491 27.3454 22.64 27.3454 23.0764V24.6037C27.3454 25.04 27.0545 25.3309 26.6181 25.3309Z" fill="#CCDAF1"/>
<path d="M24 25.3309C23.5636 25.3309 23.2727 25.04 23.2727 24.6037V23.0764C23.2727 22.64 23.5636 22.3491 24 22.3491C24.4363 22.3491 24.7273 22.64 24.7273 23.0764V24.6037C24.7273 25.04 24.4363 25.3309 24 25.3309Z" fill="#CCDAF1"/>
<path d="M30.0363 16.6765H28.509C28.0726 16.6765 27.7817 16.3856 27.7817 15.9492C27.7817 15.5128 28.0726 15.2219 28.509 15.2219H30.0363C30.4726 15.2219 30.7636 15.5128 30.7636 15.9492C30.7636 16.3856 30.3999 16.6765 30.0363 16.6765Z" fill="#CCDAF1"/>
<path d="M30.0363 19.3674H28.509C28.0726 19.3674 27.7817 19.0765 27.7817 18.6401C27.7817 18.2038 28.0726 17.9128 28.509 17.9128H30.0363C30.4726 17.9128 30.7636 18.2038 30.7636 18.6401C30.7636 19.0765 30.3999 19.3674 30.0363 19.3674Z" fill="#CCDAF1"/>
<path d="M30.0363 21.9856H28.509C28.0726 21.9856 27.7817 21.6946 27.7817 21.2583C27.7817 20.8219 28.0726 20.531 28.509 20.531H30.0363C30.4726 20.531 30.7636 20.8219 30.7636 21.2583C30.7636 21.6946 30.3999 21.9856 30.0363 21.9856Z" fill="#CCDAF1"/>
<path d="M19.4909 16.6765H17.9636C17.5272 16.6765 17.2363 16.3856 17.2363 15.9492C17.2363 15.5128 17.5272 15.2219 17.9636 15.2219H19.4909C19.9272 15.2219 20.2181 15.5128 20.2181 15.9492C20.2181 16.3856 19.9272 16.6765 19.4909 16.6765Z" fill="#CCDAF1"/>
<path d="M19.4909 19.3674H17.9636C17.5272 19.3674 17.2363 19.0765 17.2363 18.6401C17.2363 18.2038 17.5272 17.9128 17.9636 17.9128H19.4909C19.9272 17.9128 20.2181 18.2038 20.2181 18.6401C20.2181 19.0765 19.9272 19.3674 19.4909 19.3674Z" fill="#CCDAF1"/>
<path d="M19.4909 21.9856H17.9636C17.5272 21.9856 17.2363 21.6946 17.2363 21.2583C17.2363 20.8219 17.5272 20.531 17.9636 20.531H19.4909C19.9272 20.531 20.2181 20.8219 20.2181 21.2583C20.2181 21.6946 19.9272 21.9856 19.4909 21.9856Z" fill="#CCDAF1"/>
<path d="M8.21824 37.6219C7.78188 37.6219 7.49097 37.331 7.49097 36.8947V34.4219C7.49097 33.0401 8.58188 31.9492 9.96369 31.9492H21.7455C22.1819 31.9492 22.4728 32.2401 22.4728 32.6765C22.4728 33.1129 22.1819 33.4038 21.7455 33.4038H9.96369C9.38188 33.4038 8.94551 33.8401 8.94551 34.4219V36.8947C8.94551 37.2583 8.6546 37.6219 8.21824 37.6219Z" fill="#CCDAF1"/>
<path d="M39.7819 37.6219C39.3455 37.6219 39.0546 37.331 39.0546 36.8947V34.4219C39.0546 33.8401 38.6183 33.4038 38.0364 33.4038H26.2546C25.8183 33.4038 25.5273 33.1129 25.5273 32.6765C25.5273 32.2401 25.8183 31.9492 26.2546 31.9492H38.0364C39.4183 31.9492 40.5092 33.0401 40.5092 34.4219V36.8947C40.5092 37.2583 40.1455 37.6219 39.7819 37.6219Z" fill="#CCDAF1"/>
<path d="M24 31.149C23.5636 31.149 23.2727 30.8581 23.2727 30.4217V28.0945C23.2727 27.6581 23.5636 27.3672 24 27.3672C24.4363 27.3672 24.7273 27.6581 24.7273 28.0945V30.4217C24.7273 30.8581 24.4363 31.149 24 31.149Z" fill="#CCDAF1"/>
<path d="M24 37.9127C23.5636 37.9127 23.2727 37.6218 23.2727 37.1854V34.9309C23.2727 34.4945 23.5636 34.2036 24 34.2036C24.4363 34.2036 24.7273 34.4945 24.7273 34.9309V37.1854C24.7273 37.5491 24.4363 37.9127 24 37.9127Z" fill="#CCDAF1"/>
<path d="M24.0001 35.6582C22.3274 35.6582 21.0183 34.3491 21.0183 32.6764C21.0183 31.0037 22.3274 29.6946 24.0001 29.6946C25.6729 29.6946 26.9819 31.0037 26.9819 32.6764C26.9819 34.3491 25.6729 35.6582 24.0001 35.6582ZM24.0001 31.1491C23.1274 31.1491 22.4729 31.8037 22.4729 32.6764C22.4729 33.5491 23.1274 34.2037 24.0001 34.2037C24.8729 34.2037 25.5274 33.5491 25.5274 32.6764C25.5274 31.8037 24.8729 31.1491 24.0001 31.1491Z" fill="#CCDAF1"/>
<path d="M13.5273 45.2583C13.091 45.2583 12.8001 44.9673 12.8001 44.531V37.8401L3.5637 37.9128L3.63643 44.531C3.63643 44.9673 3.34552 45.2583 2.90916 45.2583C2.47279 45.2583 2.18188 44.9673 2.18188 44.531V37.8401C2.18188 37.0401 2.83643 36.4583 3.5637 36.4583H12.8001C13.6001 36.4583 14.1819 37.1128 14.1819 37.8401V44.531C14.2546 44.9673 13.9637 45.2583 13.5273 45.2583Z" fill="#CCDAF1"/>
<path d="M13.9638 47.5128H2.47286C1.96377 47.5128 1.45468 47.2219 1.30922 46.7128L0.872857 45.5492C0.727403 45.1855 0.727403 44.7492 0.945584 44.3855C1.16377 44.0219 1.60013 43.8037 1.96377 43.8037H14.4001C14.8365 43.8037 15.2001 44.0219 15.4183 44.3855C15.6365 44.7492 15.7092 45.1855 15.5638 45.5492L15.1274 46.7128C14.9819 47.2219 14.5456 47.5128 13.9638 47.5128ZM2.61831 46.0583H13.891L14.1819 45.2583H2.3274L2.61831 46.0583Z" fill="#CCDAF1"/>
<path d="M29.3091 45.2583C28.8727 45.2583 28.5818 44.9674 28.5818 44.531V37.8401L19.3454 37.9128L19.4182 44.6037C19.4182 45.0401 19.1273 45.331 18.6909 45.331C18.2545 45.331 17.9636 45.0401 17.9636 44.6037V37.9128C17.9636 37.1128 18.6182 36.531 19.3454 36.531H28.5818C29.3818 36.531 29.9636 37.1855 29.9636 37.9128V44.6037C30.0364 44.9674 29.7454 45.2583 29.3091 45.2583Z" fill="#CCDAF1"/>
<path d="M29.7454 47.5128H18.2545C17.7454 47.5128 17.2363 47.2219 17.0909 46.7128L16.6545 45.5492C16.5091 45.1855 16.5818 44.7492 16.8 44.3855C17.0182 44.0219 17.4545 43.8037 17.8182 43.8037H30.2545C30.6909 43.8037 31.0545 44.0219 31.2727 44.3855C31.4909 44.7492 31.5636 45.1855 31.4182 45.5492L30.9818 46.7128C30.7636 47.2219 30.2545 47.5128 29.7454 47.5128ZM18.3273 46.0583H29.6L29.8909 45.2583H18.0363L18.3273 46.0583Z" fill="#CCDAF1"/>
<path d="M45.0908 45.2583C44.6544 45.2583 44.3635 44.9674 44.3635 44.531V37.8401L35.1272 37.9128L35.1999 44.6037C35.1999 45.0401 34.909 45.331 34.4726 45.331C34.0363 45.331 33.7454 45.0401 33.7454 44.6037V37.9128C33.7454 37.1128 34.3999 36.531 35.1272 36.531H44.3635C45.1635 36.531 45.7454 37.1855 45.7454 37.9128V44.6037C45.8181 44.9674 45.4544 45.2583 45.0908 45.2583Z" fill="#CCDAF1"/>
<path d="M45.5272 47.5128H34.0363C33.5272 47.5128 33.0181 47.2219 32.8726 46.7128L32.4363 45.5492C32.2908 45.1855 32.3635 44.7492 32.5817 44.3855C32.7999 44.0219 33.2363 43.8037 33.5999 43.8037H46.0363C46.4726 43.8037 46.8363 44.0219 47.0544 44.3855C47.2726 44.7492 47.3454 45.1855 47.1999 45.5492L46.7635 46.7128C46.5454 47.2219 46.0363 47.5128 45.5272 47.5128ZM34.109 46.0583H45.3817L45.6726 45.2583H33.8181L34.109 46.0583Z" fill="#CCDAF1"/>
<path d="M10.8365 41.6218H9.67283C9.23647 41.6218 8.94556 41.3309 8.94556 40.8945C8.94556 40.4581 9.23647 40.1672 9.67283 40.1672H10.8365C11.2728 40.1672 11.5637 40.4581 11.5637 40.8945C11.5637 41.3309 11.2728 41.6218 10.8365 41.6218Z" fill="#CCDAF1"/>
<path d="M6.76371 41.6218H5.60008C5.16371 41.6218 4.8728 41.3309 4.8728 40.8945C4.8728 40.4581 5.16371 40.1672 5.60008 40.1672H6.76371C7.20008 40.1672 7.49098 40.4581 7.49098 40.8945C7.49098 41.3309 7.20008 41.6218 6.76371 41.6218Z" fill="#CCDAF1"/>
<path d="M9.09092 43.0763H7.34547C6.6182 43.0763 6.03638 42.4945 6.03638 41.7672V40.0217C6.03638 39.2945 6.6182 38.7126 7.34547 38.7126H9.09092C9.8182 38.7126 10.4 39.2945 10.4 40.0217V41.7672C10.4 42.4945 9.8182 43.0763 9.09092 43.0763ZM7.49092 41.6217H8.94547V40.1672H7.49092V41.6217Z" fill="#CCDAF1"/>
<path d="M26.6182 41.6218H25.4546C25.0182 41.6218 24.7273 41.3309 24.7273 40.8945C24.7273 40.4581 25.0182 40.1672 25.4546 40.1672H26.6182C27.0546 40.1672 27.3455 40.4581 27.3455 40.8945C27.3455 41.3309 26.9818 41.6218 26.6182 41.6218Z" fill="#CCDAF1"/>
<path d="M22.5455 41.6218H21.3818C20.9455 41.6218 20.6545 41.3309 20.6545 40.8945C20.6545 40.4581 20.9455 40.1672 21.3818 40.1672H22.5455C22.9818 40.1672 23.2727 40.4581 23.2727 40.8945C23.2727 41.3309 22.9091 41.6218 22.5455 41.6218Z" fill="#CCDAF1"/>
<path d="M24.8727 43.0763H23.1272C22.3999 43.0763 21.8181 42.4945 21.8181 41.7672V40.0217C21.8181 39.2945 22.3999 38.7126 23.1272 38.7126H24.8727C25.5999 38.7126 26.1818 39.2945 26.1818 40.0217V41.7672C26.1818 42.4945 25.5999 43.0763 24.8727 43.0763ZM23.2727 41.6217H24.7272V40.1672H23.2727V41.6217Z" fill="#CCDAF1"/>
<path d="M42.3999 41.6218H41.2363C40.7999 41.6218 40.509 41.3309 40.509 40.8945C40.509 40.4581 40.7999 40.1672 41.2363 40.1672H42.3999C42.8363 40.1672 43.1272 40.4581 43.1272 40.8945C43.1272 41.3309 42.7636 41.6218 42.3999 41.6218Z" fill="#CCDAF1"/>
<path d="M38.3272 41.6218H37.1636C36.7272 41.6218 36.4363 41.3309 36.4363 40.8945C36.4363 40.4581 36.7272 40.1672 37.1636 40.1672H38.3272C38.7636 40.1672 39.0545 40.4581 39.0545 40.8945C39.0545 41.3309 38.6908 41.6218 38.3272 41.6218Z" fill="#CCDAF1"/>
<path d="M40.6546 43.0763H38.9092C38.1819 43.0763 37.6001 42.4945 37.6001 41.7672V40.0217C37.6001 39.2945 38.1819 38.7126 38.9092 38.7126H40.6546C41.3819 38.7126 41.9637 39.2945 41.9637 40.0217V41.7672C41.9637 42.4945 41.3819 43.0763 40.6546 43.0763ZM39.0546 41.6217H40.5092V40.1672H39.0546V41.6217Z" fill="#CCDAF1"/>
<path d="M35.4181 10.2037H33.8181C33.3817 10.2037 33.0908 9.91279 33.0908 9.47642C33.0908 9.04006 33.3817 8.74915 33.8181 8.74915H35.1272L37.8181 5.98552C38.109 5.69461 38.5454 5.69461 38.8363 5.98552C39.1272 6.27642 39.1272 6.71279 38.8363 7.0037L35.9272 9.91279C35.7817 10.131 35.5635 10.2037 35.4181 10.2037Z" fill="#CCDAF1"/>
<path d="M31.2727 12.0945C29.8182 12.0945 28.5818 10.9309 28.5818 9.40358C28.5818 7.87631 29.8182 6.7854 31.2727 6.7854C32.7272 6.7854 33.9636 8.02176 33.9636 9.47631C33.9636 10.9309 32.8 12.0945 31.2727 12.0945ZM31.2727 8.23995C30.6182 8.23995 30.0363 8.82176 30.0363 9.47631C30.0363 10.1309 30.6182 10.7127 31.2727 10.7127C31.9272 10.7127 32.5091 10.1309 32.5091 9.47631C32.5091 8.74904 32 8.23995 31.2727 8.23995Z" fill="#CCDAF1"/>
<path d="M42.3272 20.7491H38.5454C38.109 20.7491 37.8181 20.4582 37.8181 20.0219C37.8181 19.5855 38.109 19.2946 38.5454 19.2946H42.0363L44.7272 16.6037C45.0181 16.3128 45.4545 16.3128 45.7454 16.6037C46.0363 16.8946 46.0363 17.331 45.7454 17.6219L42.8363 20.531C42.6908 20.6764 42.5454 20.7491 42.3272 20.7491Z" fill="#CCDAF1"/>
<path d="M36.0727 22.7126C34.6182 22.7126 33.3818 21.4763 33.3818 20.0217C33.3818 18.5672 34.5455 17.3308 36.0727 17.3308C37.6 17.3308 38.7637 18.4944 38.7637 20.0217C38.7637 21.549 37.5273 22.7126 36.0727 22.7126ZM36.0727 18.7854C35.4182 18.7854 34.8364 19.3672 34.8364 20.0217C34.8364 20.6763 35.4182 21.2581 36.0727 21.2581C36.7273 21.2581 37.3091 20.6763 37.3091 20.0217C37.3091 19.3672 36.7273 18.7854 36.0727 18.7854Z" fill="#CCDAF1"/>
<path d="M10.1091 18.7855H7.78187C7.56369 18.7855 7.41824 18.7128 7.27278 18.5673L4.36369 15.6582C4.07278 15.3673 4.07278 14.931 4.36369 14.6401C4.6546 14.3491 5.09096 14.3491 5.38187 14.6401L8.07278 17.331H10.1091C10.5455 17.331 10.8364 17.6219 10.8364 18.0582C10.8364 18.4946 10.4728 18.7855 10.1091 18.7855Z" fill="#CCDAF1"/>
<path d="M12.509 20.749C11.0545 20.749 9.81812 19.5854 9.81812 18.0581C9.81812 16.5308 10.9818 15.3672 12.509 15.3672C14.0363 15.3672 15.1999 16.5308 15.1999 18.0581C15.1999 19.5854 14.0363 20.749 12.509 20.749ZM12.509 16.8217C11.8545 16.8217 11.2727 17.4036 11.2727 18.0581C11.2727 18.7126 11.8545 19.2945 12.509 19.2945C13.1636 19.2945 13.7454 18.7126 13.7454 18.0581C13.7454 17.4036 13.2363 16.8217 12.509 16.8217Z" fill="#CCDAF1"/>
<path d="M5.74548 23.8037H4.14548C3.92729 23.8037 3.78184 23.7309 3.63639 23.5855L0.945477 20.8946C0.654568 20.6037 0.654568 20.1673 0.945477 19.8764C1.23639 19.5855 1.67275 19.5855 1.96366 19.8764L4.43639 22.3491H5.74548C6.18184 22.3491 6.47275 22.64 6.47275 23.0764C6.47275 23.5127 6.18184 23.8037 5.74548 23.8037Z" fill="#CCDAF1"/>
<path d="M8.21825 25.6946C6.76371 25.6946 5.52734 24.5309 5.52734 23.0037C5.52734 21.4764 6.69098 20.3127 8.21825 20.3127C9.74553 20.3127 10.9092 21.4764 10.9092 23.0037C10.9092 24.5309 9.74553 25.6946 8.21825 25.6946ZM8.21825 21.84C7.56371 21.84 6.98189 22.4218 6.98189 23.0764C6.98189 23.7309 7.56371 24.3127 8.21825 24.3127C8.8728 24.3127 9.45462 23.7309 9.45462 23.0764C9.45462 22.4218 8.94553 21.84 8.21825 21.84Z" fill="#CCDAF1"/>
</g>
<defs>
<clipPath id="clip0_14_22584">
<rect width="48" height="48" fill="white" transform="translate(0 0.23999)"/>
</clipPath>
</defs>
</svg>
