<svg width="48" height="49" viewBox="0 0 48 49" fill="none" xmlns="http://www.w3.org/2000/svg">
<g clip-path="url(#clip0_14_22520)">
<path d="M17.5532 30.0942H14.7385C13.8618 30.0942 13.1484 29.3812 13.1484 28.5041V26.9352C13.1484 26.8426 13.0829 26.7624 12.9858 26.7357C12.0099 26.4698 11.0687 26.0787 10.1887 25.5737C10.1089 25.5279 10.0148 25.5371 9.95506 25.5968L8.83446 26.7174C8.53417 27.0176 8.135 27.1828 7.71019 27.1828C7.28576 27.1828 6.88622 27.0176 6.58593 26.7174L4.59557 24.727C4.29528 24.4267 4.12976 24.0272 4.12976 23.6027C4.12976 23.1779 4.29528 22.7784 4.59557 22.4785L5.71581 21.3579C5.77587 21.2982 5.78503 21.2041 5.73888 21.1242C5.23425 20.2442 4.84313 19.3031 4.57726 18.3271C4.55053 18.2301 4.47033 18.1645 4.37768 18.1645H2.80883C1.93213 18.1645 1.21875 17.4511 1.21875 16.5744V13.7597C1.21875 12.883 1.93213 12.1697 2.80883 12.1697H4.37768C4.47033 12.1697 4.55053 12.1045 4.57726 12.0071C4.84313 11.0315 5.23425 10.0903 5.73925 9.20994C5.78503 9.13011 5.77587 9.03599 5.71618 8.9763L4.59557 7.8557C4.29528 7.55577 4.12976 7.15624 4.12976 6.73143C4.12976 6.30699 4.29528 5.90746 4.59557 5.60717L6.58593 3.61681C6.88622 3.31652 7.28539 3.15136 7.71019 3.15136C8.135 3.15136 8.53453 3.31652 8.83482 3.61718L9.95506 4.73742C10.0148 4.79711 10.1085 4.80626 10.1887 4.76049C11.0687 4.25549 12.0095 3.86474 12.9855 3.5985C13.0832 3.57177 13.1484 3.49157 13.1484 3.39892V1.83007C13.1484 0.953368 13.8618 0.23999 14.7385 0.23999H17.5532C18.4299 0.23999 19.1433 0.953368 19.1433 1.83007V3.39892C19.1433 3.49157 19.2085 3.57177 19.3059 3.59814C20.2815 3.86437 21.2226 4.25549 22.1026 4.76049C22.1828 4.80626 22.2766 4.79711 22.3366 4.73742L23.4569 3.61681C24.0783 2.99572 25.0843 2.99536 25.7058 3.61718L25.9163 3.82775C26.5737 4.48473 25.5802 5.48009 24.9221 4.82201C24.7924 4.70995 24.6262 4.43639 24.4515 4.61144L23.3309 5.73168C22.8241 6.23851 22.0312 6.34069 21.4028 5.97997C20.6264 5.53466 19.7962 5.18969 18.936 4.95495C18.2299 4.76269 17.7367 4.12255 17.7367 3.39855V1.83007C17.7367 1.72863 17.6543 1.64624 17.5528 1.64624H14.7381C14.6371 1.64624 14.5547 1.72863 14.5547 1.83007V3.39892C14.5547 4.12292 14.0614 4.76269 13.3553 4.95531C12.4947 5.19005 11.6645 5.53466 10.8882 5.97997C10.2601 6.34069 9.46727 6.23851 8.96043 5.73168L7.8402 4.61144C7.79552 4.56676 7.74498 4.55761 7.71019 4.55761C7.6754 4.55761 7.62487 4.56676 7.58055 4.61144L5.58984 6.60179C5.54552 6.6461 5.536 6.69701 5.536 6.73143C5.536 6.76622 5.54552 6.81713 5.58984 6.86144L6.71044 7.98204C7.21727 8.48887 7.31945 9.28135 6.95873 9.90977C6.51342 10.6865 6.16845 11.5163 5.93371 12.3769C5.74145 13.083 5.10131 13.5759 4.37768 13.5759H2.80883C2.70739 13.5759 2.625 13.6587 2.625 13.7597V16.5744C2.625 16.6759 2.70739 16.7583 2.80883 16.7583H4.37768C5.10131 16.7583 5.74145 17.2512 5.93407 17.9572C6.16845 18.8182 6.51342 19.648 6.95873 20.4244C7.31945 21.0528 7.21727 21.8453 6.71044 22.3521L5.5902 23.4727C5.54552 23.517 5.53637 23.5679 5.53637 23.6027C5.53637 23.6372 5.54589 23.6881 5.5902 23.7327L7.58055 25.7227C7.65233 25.7945 7.76879 25.7949 7.84056 25.7227L8.9608 24.6025C9.46764 24.0957 10.2605 23.9935 10.8889 24.3542C11.6653 24.7995 12.4951 25.1445 13.3557 25.3792C14.0617 25.5715 14.555 26.2116 14.555 26.9356V28.5041C14.555 28.6055 14.6374 28.6879 14.7385 28.6879H17.5532C17.6546 28.6879 17.737 28.6055 17.737 28.5041V26.9356C17.737 26.2116 18.2303 25.5715 18.9364 25.3792C19.8347 25.1346 20.2031 26.4914 19.3062 26.7357C19.2088 26.7624 19.1433 26.8426 19.1433 26.9356V28.5041C19.1433 29.3808 18.4299 30.0942 17.5532 30.0942Z" fill="#CCDAF1"/>
<path d="M9.51904 15.167C9.51904 10.5176 14.1941 7.33046 18.5022 8.97182C19.3705 9.30324 18.8713 10.6176 18.0012 10.2861C14.6013 8.99013 10.9249 11.514 10.9249 15.167C10.9249 18.1384 13.4276 20.5561 16.4576 20.3785C17.3841 20.3225 17.4709 21.7277 16.5404 21.7826C12.7197 22.0074 9.51904 18.9606 9.51904 15.167Z" fill="#CCDAF1"/>
<path d="M40.1287 31.4635L33.0045 30.0781V28.3177C35.0051 26.9528 36.0883 25.02 36.3242 22.8491C37.3627 22.7667 38.1823 21.8955 38.1823 20.8364V19.3913C39.8753 18.6552 39.6468 16.1844 37.8557 15.7677V15.2099C37.8557 10.1954 33.7904 6.13013 28.7762 6.13013H28.0149C23.0003 6.13013 18.9354 10.1954 18.9354 15.2096V15.7677C17.145 16.1841 16.915 18.6552 18.6087 19.3913V20.8364C18.6087 21.8955 19.4283 22.7667 20.4669 22.8491C20.6727 24.7431 21.5604 26.4768 22.9608 27.6823C23.2289 27.9134 23.5042 28.1251 23.7866 28.3177V30.0781L16.6623 31.4635C12.9036 32.1944 9.97388 34.3133 9.97388 38.223V45.3747C9.97388 46.9571 11.2567 48.2399 12.8391 48.2399H43.952C45.5344 48.2399 46.8172 46.9571 46.8172 45.3747V38.223C46.8172 34.3261 43.9054 32.1977 40.1287 31.4635ZM34.2763 31.7579C33.7658 32.5002 32.9854 33.6332 32.1424 34.8535C31.7989 35.3511 31.1826 35.4145 30.9416 35.2702L29.8309 34.6041C30.9141 33.9643 32.413 32.8657 32.8679 31.484L34.2763 31.7579ZM28.3953 33.7841C27.3275 33.2465 25.1987 31.9183 25.1928 30.6629C25.1928 30.6611 25.1928 30.6593 25.1928 30.6574V29.0941C27.2392 29.9766 29.5493 29.9777 31.5982 29.0941V30.6574C31.5982 31.915 29.4643 33.2462 28.3953 33.7841ZM20.3417 15.2096C20.3417 12.3253 21.9413 9.80761 24.3 8.49731V9.37878C24.3 10.3082 25.7063 10.3097 25.7063 9.37878V7.89123C26.3372 7.69165 27.003 7.5719 27.6922 7.54333V11.0201C27.6922 11.9496 29.0985 11.951 29.0985 11.0201V7.54333C29.7877 7.5719 30.4538 7.69165 31.0848 7.89123V9.37878C31.0848 10.3082 32.491 10.3097 32.491 9.37878V8.49731C34.8498 9.80761 36.4494 12.3253 36.4494 15.2096V15.7179H20.3417V15.2096ZM19.3697 17.1241H37.4213C38.0952 17.1241 38.0944 18.1426 37.4213 18.1426H19.3697C18.6955 18.1426 18.6963 17.1241 19.3697 17.1241ZM21.8285 22.1372C21.8204 21.7549 21.508 21.4491 21.1253 21.4491C21.0082 21.4201 20.0146 21.6318 20.0146 20.8364V19.5492H36.7761V20.8364C36.7761 21.6303 35.7562 21.4267 35.6654 21.4491C35.283 21.4491 34.9707 21.7549 34.9622 22.1372C34.9245 23.895 34.1774 25.5275 32.9129 26.6167C30.2275 28.9289 26.5636 28.9293 23.8781 26.6167C22.6133 25.5275 21.8662 23.895 21.8285 22.1372ZM23.9228 31.484C24.378 32.8657 25.8766 33.9643 26.9602 34.6041C25.8469 35.2003 25.9256 35.3786 25.4199 35.3189C25.1053 35.2812 24.823 35.1061 24.6428 34.8454C23.802 33.6281 23.0241 32.4984 22.5144 31.7579L23.9228 31.484ZM15.8102 46.8337H12.8387C12.0331 46.8337 11.3798 46.1803 11.3798 45.3747V38.223C11.3798 36.1158 12.337 34.659 14.4369 33.6527C14.5218 34.0269 15.8102 37.5239 15.8102 42.4102V46.8337ZM27.6922 46.8337H17.2164V42.4102C17.2164 37.1159 15.8797 33.7069 15.7483 33.1297C16.5693 32.8569 15.9596 33.0671 21.0093 32.0505C22.4605 34.1595 25.169 38.0944 26.7657 40.3638C27.3722 41.2255 27.6922 42.2377 27.6922 43.2913V46.8337ZM28.3953 40.3506C28.2555 40.0763 28.0954 39.8105 27.916 39.5549C27.3762 38.788 26.6756 37.7817 25.9447 36.7266C26.1618 36.6786 26.3739 36.5952 26.5727 36.4761L28.3953 35.383L30.2183 36.4761C30.4168 36.5952 30.6292 36.6786 30.8464 36.7266C30.1154 37.7809 29.4149 38.7873 28.8751 39.5549C28.6953 39.8105 28.5352 40.0763 28.3953 40.3506ZM45.4109 45.3747C45.4109 46.1803 44.758 46.8337 43.952 46.8337H40.9805V44.1808C40.9805 43.2514 39.5743 43.2499 39.5743 44.1808V46.8337H29.0985V43.2913C29.0985 42.2377 29.4189 41.2255 30.025 40.3642C30.9332 39.0733 34.6726 33.6772 35.7818 32.0505C40.8289 33.0667 40.2203 32.8565 41.0424 33.1297C40.9402 33.5622 39.757 36.7779 39.5937 41.3394C39.56 42.271 40.9655 42.3168 40.9988 41.3899C41.157 36.9756 42.2399 34.1353 42.3538 33.6527C44.4537 34.659 45.4109 36.1158 45.4109 38.2226V45.3747Z" fill="#CCDAF1"/>
</g>
<defs>
<clipPath id="clip0_14_22520">
<rect width="48" height="48" fill="white" transform="translate(0 0.23999)"/>
</clipPath>
</defs>
</svg>
