<svg width="44" height="44" viewBox="0 0 44 44" fill="none" xmlns="http://www.w3.org/2000/svg">
<rect x="0.25" y="0.25" width="43.5" height="43.5" rx="21.75" stroke="#FC9C04" stroke-width="0.5"/>
<rect x="4" y="4" width="36" height="36" rx="18" fill="#EF7C00"/>
<path d="M23.875 20.125V16.375M23.875 20.125L27.625 20.125M23.875 20.125L28.875 15.125M26.375 30.125C19.4714 30.125 13.875 24.5286 13.875 17.625V15.75C13.875 14.7145 14.7145 13.875 15.75 13.875H16.893C17.3232 13.875 17.6982 14.1678 17.8025 14.5851L18.724 18.2711C18.8155 18.637 18.6788 19.0222 18.377 19.2485L17.299 20.057C16.9861 20.2917 16.8478 20.6975 16.9823 21.0647C17.9918 23.8205 20.1795 26.0082 22.9353 27.0177C23.3025 27.1522 23.7083 27.0139 23.943 26.701L24.7515 25.623C24.9778 25.3212 25.363 25.1845 25.7289 25.276L29.4149 26.1975C29.8322 26.3018 30.125 26.6768 30.125 27.107V28.25C30.125 29.2855 29.2855 30.125 28.25 30.125H26.375Z" stroke="white" stroke-width="1.5" stroke-linecap="round" stroke-linejoin="round"/>
</svg>
