<svg width="48" height="48" viewBox="0 0 48 48" fill="none" xmlns="http://www.w3.org/2000/svg">
<path d="M44.2745 10.053H38.5564C38.0552 8.67736 37.0525 7.54196 35.7494 6.87443C35.5821 6.77783 35.3836 6.75072 35.1966 6.79891C35.0095 6.84711 34.8489 6.96676 34.7491 7.13215C34.6493 7.29755 34.6184 7.49548 34.6631 7.68342C34.7077 7.87135 34.8242 8.03428 34.9877 8.13719C36.0093 8.75347 37.2268 9.75208 37.2268 11.0077V13.3578C33.7637 9.66167 22.5038 8.65482 16.4197 10.5399C16.3261 10.5652 16.2384 10.6086 16.1616 10.6678C16.0848 10.727 16.0204 10.8008 15.9722 10.8849C15.9239 10.969 15.8927 11.0618 15.8804 11.158C15.8681 11.2541 15.8748 11.3518 15.9003 11.4454C15.9258 11.5389 15.9695 11.6265 16.0289 11.7032C16.0882 11.7798 16.1622 11.844 16.2464 11.892C16.3306 11.9401 16.4235 11.971 16.5197 11.9831C16.616 11.9951 16.7136 11.9881 16.8071 11.9624C19.1535 11.3544 21.5693 11.0558 23.9931 11.0739C34.4169 11.0444 42.782 16.4096 32.657 20.3378C32.6836 20.2923 33.3587 17.7093 33.3174 17.7401C33.2805 12.475 14.604 12.4756 14.5673 17.7401C14.4793 17.664 15.2297 20.259 15.2155 20.2896C10.0604 18.4334 9.05162 15.215 14.1274 12.9155C14.3049 12.8338 14.4427 12.6848 14.5104 12.5015C14.5782 12.3182 14.5703 12.1155 14.4886 11.9379C14.4069 11.7604 14.258 11.6226 14.0747 11.5548C13.8914 11.487 13.6887 11.4948 13.5111 11.5765C12.5032 12.0197 11.5757 12.6272 10.7666 13.374V11.0077C10.7666 8.44752 16.0843 5.70662 24.0003 5.70662C26.8598 5.67352 29.7058 6.10288 32.4282 6.97806C32.612 7.03883 32.8123 7.02487 32.9859 6.93919C33.1595 6.85351 33.2924 6.70299 33.3559 6.52014C33.4194 6.33729 33.4085 6.13678 33.3254 5.96193C33.2424 5.78708 33.0939 5.65192 32.912 5.58564C26.0766 2.89802 11.1529 4.21935 9.44808 10.0532L3.72604 10.053C3.53251 10.0561 3.34792 10.1351 3.21213 10.273C3.07634 10.411 3.00024 10.5968 3.00024 10.7903C3.00025 10.9839 3.07637 11.1697 3.21216 11.3076C3.34796 11.4455 3.53255 11.5245 3.72609 11.5275H9.29213V16.3823C9.29213 18.7091 11.6117 20.74 15.6655 21.9937L15.8745 22.7851C15.9699 24.1662 17.3236 25.3395 19.6438 26.0162C19.8305 26.0679 20.0302 26.0441 20.1995 25.9498C20.3688 25.8555 20.4942 25.6983 20.5485 25.5122C20.6029 25.3262 20.5817 25.1262 20.4898 24.9556C20.3978 24.785 20.2423 24.6575 20.057 24.6007C15.1125 23.0488 17.8725 20.9945 21.1492 20.4004C23.4898 19.7688 30.1954 20.2758 30.5548 22.6316C30.6165 23.1897 29.7689 23.4909 29.7765 24.07C29.779 24.211 29.8215 24.3484 29.899 24.4662C29.9765 24.5841 30.0858 24.6775 30.2143 24.7356C30.3428 24.7938 30.4852 24.8142 30.6249 24.7947C30.7645 24.7751 30.8958 24.7163 31.0034 24.6251C32.1152 23.6368 31.9045 22.9965 32.2094 22.0329C36.2852 20.7993 38.7085 18.7057 38.7085 16.3822C38.7085 16.3051 38.7013 11.5275 38.7013 11.5275H44.2745C44.4677 11.524 44.6518 11.4447 44.7872 11.3068C44.9225 11.169 44.9984 10.9835 44.9984 10.7903C44.9984 10.597 44.9225 10.4115 44.7871 10.2737C44.6518 10.1358 44.4677 10.0566 44.2745 10.053ZM17.4277 20.2276C17.2215 20.3631 17.0262 20.5146 16.8437 20.6807L16.0475 17.6652C16.1332 17.0705 17.2318 16.3414 19.0772 15.8412L20.0756 19.1362C19.1394 19.3534 18.245 19.7221 17.4277 20.2276ZM26.3693 18.861C24.7652 18.6294 23.1362 18.6279 21.5316 18.8566L20.523 15.5279C22.7946 15.168 25.1088 15.1691 27.3801 15.531L26.3693 18.861ZM31.0426 20.6765C30.1079 19.9154 29.0062 19.3864 27.8278 19.1329L28.8255 15.846C30.6602 16.346 31.7517 17.0723 31.8371 17.6652L31.0426 20.6765Z" fill="white"/>
<path d="M29.9465 29.3855C29.8081 29.4348 29.6877 29.5242 29.6004 29.6424C29.5132 29.7605 29.4632 29.902 29.4569 30.0487C29.2832 33.3092 28.3809 32.6095 28.4517 30.7471C28.8582 26.5127 25.4096 22.8351 22.7525 22.3501C22.6158 22.3289 22.4759 22.3462 22.3485 22.4002C22.2212 22.4542 22.1115 22.5427 22.0318 22.6558C21.9521 22.7688 21.9055 22.9019 21.8974 23.04C21.8893 23.178 21.9199 23.3156 21.9858 23.4372C22.3509 24.0123 22.4943 24.7005 22.3892 25.3735C22.2842 26.0464 21.9378 26.6582 21.4149 27.0946C21.3702 27.07 20.4123 28.3149 20.3579 28.3488C20.2377 28.4999 20.1815 28.6922 20.2015 28.8843C20.2215 29.0764 20.3161 29.253 20.4649 29.3761C20.6136 29.4993 20.8048 29.5591 20.9973 29.5429C21.1897 29.5266 21.3681 29.4354 21.4941 29.2891C22.5844 27.84 24.1257 26.9813 23.8585 24.4098C24.8879 25.0818 25.7198 26.0159 26.2683 27.1161C26.8169 28.2162 27.0623 29.4427 26.9794 30.6693C26.9161 31.1396 26.9487 31.6179 27.0751 32.0754C27.2016 32.5328 27.4194 32.9599 27.7153 33.331C28.6015 34.1457 30.1928 33.9744 30.6448 32.148C32.186 35.0294 31.2154 38.3357 28.1536 40.429C28.3546 39.567 28.3536 38.6703 28.1507 37.8088C27.9478 36.9473 27.5484 36.1444 26.9838 35.4628C25.0284 33.0437 25.3819 31.2157 25.3963 31.1473C25.4268 31.0073 25.4161 30.8614 25.3655 30.7273C25.3148 30.5932 25.2265 30.4767 25.1111 30.3917C24.9956 30.3067 24.8581 30.257 24.715 30.2485C24.572 30.24 24.4295 30.2731 24.3048 30.3438C22.3247 31.4283 21.4841 33.8103 22.9276 35.7781C23.052 35.9406 23.1448 36.125 23.2012 36.3217C23.2302 36.4479 23.221 36.5798 23.1745 36.7007C23.1281 36.8215 23.0466 36.9257 22.9405 36.9999C22.0945 37.6028 21.6844 36.4133 21.7151 35.845C21.7136 35.6919 21.6646 35.543 21.5748 35.4189C21.4851 35.2948 21.3591 35.2015 21.2142 35.152C21.0693 35.1025 20.9125 35.0992 20.7656 35.1425C20.6187 35.1857 20.4889 35.2735 20.394 35.3937C19.1018 36.9245 19.4333 39.1808 19.9364 40.8068C17.1696 38.8187 16.9679 34.3446 19.5906 31.5987C19.7111 31.4479 19.7677 31.2559 19.7482 31.0639C19.7286 30.8718 19.6346 30.6951 19.4862 30.5716C19.3379 30.4482 19.147 30.3878 18.9546 30.4035C18.7622 30.4192 18.5837 30.5097 18.4573 30.6555C12.56 37.5899 19.5065 45.5673 25.9355 43.3775C29.6225 41.8212 32.2819 39.0784 32.732 36.3354C33.4268 32.6679 30.8551 29.7153 30.745 29.5915C30.6477 29.4813 30.5196 29.4028 30.3773 29.3661C30.235 29.3294 30.0849 29.3362 29.9465 29.3855ZM25.7859 41.8475C25.1898 42.1429 24.5354 42.3019 23.8702 42.313C23.205 42.324 22.5457 42.1869 21.9401 41.9115C21.3225 40.6775 20.9919 39.3198 20.9732 37.9399C22.3885 39.6012 25.2136 38.0028 24.6266 35.9458C24.5255 35.5769 24.3565 35.23 24.1284 34.9229C23.8702 34.6044 23.7151 34.2148 23.684 33.806C23.6529 33.3972 23.7471 32.9886 23.9542 32.6348C24.3083 34.0064 24.9506 35.2869 25.8385 36.3908C26.4914 37.1528 26.8459 38.1256 26.8362 39.129C26.8265 40.1325 26.4534 41.0983 25.7859 41.8475Z" fill="white"/>
<path d="M13.0479 9.75587C13.0507 9.95918 13.1334 10.1532 13.2782 10.296C13.423 10.4387 13.6182 10.5188 13.8215 10.5188C14.0248 10.5188 14.22 10.4387 14.3648 10.2959C14.5095 10.1532 14.5923 9.95914 14.5951 9.75582C14.5923 9.55251 14.5095 9.35849 14.3647 9.21572C14.2199 9.07295 14.0248 8.99291 13.8215 8.99292C13.6181 8.99293 13.423 9.07297 13.2782 9.21575C13.1334 9.35853 13.0507 9.55256 13.0479 9.75587Z" fill="white"/>
<path d="M34.176 10.5296C34.3792 10.5266 34.5731 10.4438 34.7157 10.2991C34.8584 10.1543 34.9383 9.95923 34.9383 9.75599C34.9383 9.55276 34.8583 9.35768 34.7157 9.21293C34.573 9.06818 34.3791 8.98538 34.1759 8.98242C33.9727 8.9854 33.7788 9.06821 33.6362 9.21297C33.4935 9.35773 33.4136 9.55281 33.4136 9.75604C33.4136 9.95928 33.4936 10.1543 33.6362 10.2991C33.7789 10.4438 33.9728 10.5267 34.176 10.5296Z" fill="white"/>
</svg>
